<svg xmlns="http://www.w3.org/2000/svg" xmlns:xlink="http://www.w3.org/1999/xlink" width="1920" zoomAndPan="magnify" viewBox="0 0 1440 809.999993" height="1080" preserveAspectRatio="xMidYMid meet" version="1.0"><defs><g/><clipPath id="f643e050a6"><path d="M 423.3125 84.21875 L 1021.851562 84.21875 L 1021.851562 682.757812 L 423.3125 682.757812 Z M 423.3125 84.21875 " clip-rule="nonzero"/></clipPath><clipPath id="98d3ca2040"><path d="M 722.582031 84.21875 C 557.300781 84.21875 423.3125 218.207031 423.3125 383.488281 C 423.3125 548.769531 557.300781 682.757812 722.582031 682.757812 C 887.863281 682.757812 1021.851562 548.769531 1021.851562 383.488281 C 1021.851562 218.207031 887.863281 84.21875 722.582031 84.21875 Z M 722.582031 84.21875 " clip-rule="nonzero"/></clipPath><clipPath id="1aa2a278e6"><path d="M 0.3125 0.21875 L 598.851562 0.21875 L 598.851562 598.757812 L 0.3125 598.757812 Z M 0.3125 0.21875 " clip-rule="nonzero"/></clipPath><clipPath id="f811c74c57"><path d="M 299.582031 0.21875 C 134.300781 0.21875 0.3125 134.207031 0.3125 299.488281 C 0.3125 464.769531 134.300781 598.757812 299.582031 598.757812 C 464.863281 598.757812 598.851562 464.769531 598.851562 299.488281 C 598.851562 134.207031 464.863281 0.21875 299.582031 0.21875 Z M 299.582031 0.21875 " clip-rule="nonzero"/></clipPath><clipPath id="3de3ca84d4"><rect x="0" width="599" y="0" height="599"/></clipPath></defs><rect x="-144" width="1728" fill="#ffffff" y="-80.999999" height="971.999992" fill-opacity="1"/><rect x="-144" width="1728" fill="#ffffff" y="-80.999999" height="971.999992" fill-opacity="1"/><g clip-path="url(#f643e050a6)"><g clip-path="url(#98d3ca2040)"><g transform="matrix(1, 0, 0, 1, 423, 84)"><g clip-path="url(#3de3ca84d4)"><g clip-path="url(#1aa2a278e6)"><g clip-path="url(#f811c74c57)"><path fill="#f9f9f8" d="M 0.3125 0.21875 L 598.851562 0.21875 L 598.851562 598.757812 L 0.3125 598.757812 Z M 0.3125 0.21875 " fill-opacity="1" fill-rule="nonzero"/></g></g></g></g></g></g><path stroke-linecap="butt" transform="matrix(0.562939, -0.49558, 0.49558, 0.562939, 516.881116, 488.336707)" fill="none" stroke-linejoin="miter" d="M 44.999924 6.001383 L 464.383562 5.998296 " stroke="#e97b2c" stroke-width="12" stroke-opacity="1" stroke-miterlimit="4"/><path stroke-linecap="round" transform="matrix(0.562939, -0.49558, 0.49558, 0.562939, 516.881116, 488.336707)" fill="none" stroke-linejoin="round" d="M 5.99707 5.999773 C 5.999151 -3.94202 14.05884 -12.001559 24.000634 -11.999477 C 33.938518 -12.000837 41.998057 -3.941148 41.999417 5.996736 C 42.001244 15.94197 33.941555 24.00151 23.999762 23.999428 C 14.057969 23.997346 6.002339 15.941099 5.99707 5.999773 " stroke="#e97b2c" stroke-width="12" stroke-opacity="1" stroke-miterlimit="4"/><path stroke-linecap="round" transform="matrix(0.562939, -0.49558, 0.49558, 0.562939, 516.881116, 488.336707)" fill="none" stroke-linejoin="round" d="M 503.386416 5.999905 C 503.384334 15.941699 495.324645 24.001238 485.382852 23.999156 C 475.444968 24.000516 467.385429 15.940827 467.387511 5.999034 C 467.386151 -3.93885 475.44584 -11.998389 485.383724 -11.999749 C 495.325517 -11.997668 503.385056 -3.937979 503.386416 5.999905 " stroke="#e97b2c" stroke-width="12" stroke-opacity="1" stroke-miterlimit="4"/><path stroke-linecap="butt" transform="matrix(-0.549858, 0.510055, -0.510055, -0.549858, 589.320745, 327.121175)" fill="none" stroke-linejoin="miter" d="M 0.00139367 1.500407 L 100.886738 1.500544 " stroke="#e97b2c" stroke-width="3" stroke-opacity="1" stroke-miterlimit="4"/><path stroke-linecap="round" transform="matrix(-0.549858, 0.510055, -0.510055, -0.549858, 589.320745, 327.121175)" fill="none" stroke-linejoin="round" d="M 110.634692 1.499343 C 110.632154 3.983427 108.618283 6.001282 106.134198 5.998744 C 103.646572 6.000025 101.636077 3.985877 101.634797 1.498251 C 101.633793 -0.982015 103.647664 -2.99987 106.13529 -3.001151 C 108.619375 -2.998613 110.633411 -0.988284 110.634692 1.499343 " stroke="#e97b2c" stroke-width="3" stroke-opacity="1" stroke-miterlimit="4"/><path fill="#e97b2c" d="M 562.882812 470.058594 L 565.144531 468.085938 L 567.117188 470.347656 L 564.855469 472.320312 M 567.402344 466.113281 L 569.664062 464.140625 L 571.636719 466.398438 L 569.375 468.371094 M 571.921875 462.167969 L 574.183594 460.191406 L 576.15625 462.453125 L 573.894531 464.425781 M 576.441406 458.21875 L 578.703125 456.246094 L 580.675781 458.507812 L 578.414062 460.480469 M 580.960938 454.273438 L 583.222656 452.300781 L 585.195312 454.558594 L 582.933594 456.53125 M 585.480469 450.328125 L 587.738281 448.351562 L 589.714844 450.613281 L 587.453125 452.585938 M 590 446.378906 L 592.257812 444.40625 L 594.234375 446.667969 L 591.972656 448.640625 M 594.519531 442.433594 L 596.777344 440.460938 L 598.753906 442.71875 L 596.492188 444.691406 M 599.039062 438.488281 L 601.296875 436.515625 L 603.269531 438.773438 L 601.011719 440.746094 M 603.558594 434.539062 L 605.816406 432.566406 L 607.789062 434.828125 L 605.53125 436.800781 M 608.078125 430.59375 L 610.335938 428.621094 L 612.308594 430.878906 L 610.050781 432.851562 M 612.597656 426.648438 L 614.855469 424.675781 L 616.828125 426.933594 L 614.570312 428.90625 M 617.117188 422.699219 L 619.375 420.726562 L 621.347656 422.988281 L 619.089844 424.960938 M 621.636719 418.753906 L 623.894531 416.78125 L 625.867188 419.039062 L 623.609375 421.015625 M 626.15625 414.808594 L 628.414062 412.835938 L 630.386719 415.09375 L 628.128906 417.066406 M 630.675781 410.859375 L 632.933594 408.886719 L 634.90625 411.148438 L 632.648438 413.121094 M 635.191406 406.914062 L 637.453125 404.941406 L 639.425781 407.199219 L 637.167969 409.175781 M 639.710938 402.96875 L 641.972656 400.996094 L 643.945312 403.253906 L 641.6875 405.226562 M 644.230469 399.019531 L 646.492188 397.046875 L 648.464844 399.308594 L 646.207031 401.28125 M 648.75 395.074219 L 651.011719 393.101562 L 652.984375 395.359375 L 650.722656 397.335938 M 653.269531 391.128906 L 655.53125 389.15625 L 657.503906 391.414062 L 655.242188 393.386719 M 657.789062 387.179688 L 660.050781 385.207031 L 662.023438 387.46875 L 659.761719 389.441406 M 662.308594 383.234375 L 664.570312 381.261719 L 666.542969 383.519531 L 664.28125 385.496094 M 666.828125 379.289062 L 669.089844 377.316406 L 671.0625 379.574219 L 668.800781 381.546875 M 671.347656 375.339844 L 673.609375 373.367188 L 675.582031 375.628906 L 673.320312 377.601562 M 675.867188 371.394531 L 678.128906 369.421875 L 680.101562 371.679688 L 677.839844 373.65625 M 680.386719 367.449219 L 682.644531 365.476562 L 684.621094 367.734375 L 682.359375 369.707031 M 684.90625 363.5 L 687.164062 361.527344 L 689.140625 363.789062 L 686.878906 365.761719 M 689.425781 359.554688 L 691.683594 357.582031 L 693.660156 359.839844 L 691.398438 361.816406 M 693.945312 355.609375 L 696.203125 353.636719 L 698.175781 355.894531 L 695.917969 357.867188 M 698.464844 351.664062 L 700.722656 349.6875 L 702.695312 351.949219 L 700.4375 353.921875 M 702.984375 347.714844 L 705.242188 345.742188 L 707.214844 348 L 704.957031 349.976562 M 707.503906 343.769531 L 709.761719 341.796875 L 711.734375 344.054688 L 709.476562 346.027344 M 712.023438 339.824219 L 714.28125 337.847656 L 716.253906 340.109375 L 713.996094 342.082031 M 716.542969 335.875 L 718.800781 333.902344 L 720.773438 336.164062 L 718.515625 338.136719 M 721.0625 331.929688 L 723.320312 329.957031 L 725.292969 332.214844 L 723.035156 334.1875 M 725.582031 327.984375 L 727.839844 326.007812 L 729.8125 328.269531 L 727.554688 330.242188 M 730.097656 324.035156 L 732.359375 322.0625 L 734.332031 324.324219 L 732.074219 326.296875 M 734.617188 320.089844 L 736.878906 318.117188 L 738.851562 320.375 L 736.59375 322.347656 M 739.136719 316.144531 L 741.398438 314.167969 L 743.371094 316.429688 L 741.113281 318.402344 M 743.65625 312.195312 L 745.917969 310.222656 L 747.890625 312.484375 L 745.628906 314.457031 M 748.175781 308.25 L 750.4375 306.277344 L 752.410156 308.535156 L 750.148438 310.507812 M 752.695312 304.304688 L 754.957031 302.328125 L 756.929688 304.589844 L 754.667969 306.5625 M 757.214844 300.355469 L 759.476562 298.382812 L 761.449219 300.644531 L 759.1875 302.617188 M 761.734375 296.410156 L 763.996094 294.4375 L 765.96875 296.695312 L 763.707031 298.667969 M 766.253906 292.464844 L 768.515625 290.488281 L 770.488281 292.75 L 768.226562 294.722656 M 770.773438 288.515625 L 773.035156 286.542969 L 775.007812 288.804688 L 772.746094 290.777344 M 775.292969 284.570312 L 777.550781 282.597656 L 779.527344 284.855469 L 777.265625 286.828125 M 779.8125 280.625 L 782.070312 278.648438 L 784.046875 280.910156 L 781.785156 282.882812 M 784.332031 276.675781 L 785.128906 275.980469 L 787.101562 278.238281 L 786.304688 278.9375 " fill-opacity="1" fill-rule="nonzero"/><path fill="#e97b2c" d="M 596.992188 461.496094 L 603.738281 455.535156 L 605.722656 457.785156 L 598.980469 463.742188 M 605.984375 453.550781 L 612.730469 447.589844 L 614.71875 449.839844 L 607.972656 455.796875 M 614.980469 445.605469 L 621.722656 439.644531 L 623.710938 441.894531 L 616.964844 447.851562 M 623.972656 437.660156 L 630.71875 431.703125 L 632.703125 433.949219 L 625.960938 439.910156 M 632.964844 429.714844 L 639.710938 423.757812 L 641.699219 426.003906 L 634.953125 431.964844 M 641.960938 421.769531 L 648.703125 415.8125 L 650.691406 418.058594 L 643.945312 424.019531 M 650.953125 413.824219 L 657.699219 407.867188 L 659.683594 410.117188 L 652.9375 416.074219 M 659.945312 405.882812 L 666.691406 399.921875 L 668.679688 402.171875 L 661.933594 408.128906 M 668.941406 397.9375 L 675.683594 391.976562 L 677.671875 394.226562 L 670.925781 400.183594 M 677.933594 389.992188 L 684.679688 384.035156 L 686.664062 386.28125 L 679.917969 392.238281 M 686.925781 382.046875 L 693.671875 376.089844 L 695.65625 378.335938 L 688.914062 384.296875 M 695.921875 374.101562 L 702.664062 368.144531 L 704.652344 370.390625 L 697.90625 376.351562 M 704.914062 366.15625 L 711.660156 360.199219 L 713.644531 362.449219 L 706.898438 368.40625 M 713.90625 358.214844 L 720.652344 352.253906 L 722.636719 354.503906 L 715.894531 360.460938 M 722.902344 350.269531 L 729.644531 344.308594 L 731.632812 346.558594 L 724.886719 352.515625 M 731.894531 342.324219 L 738.640625 336.363281 L 740.625 338.613281 L 733.878906 344.570312 M 740.886719 334.378906 L 747.632812 328.421875 L 749.617188 330.667969 L 742.875 336.628906 M 749.878906 326.433594 L 756.625 320.476562 L 758.613281 322.722656 L 751.867188 328.683594 M 758.875 318.488281 L 765.621094 312.53125 L 767.605469 314.777344 L 760.859375 320.738281 M 767.867188 310.542969 L 774.613281 304.585938 L 776.597656 306.835938 L 769.855469 312.792969 " fill-opacity="1" fill-rule="nonzero"/><path stroke-linecap="round" transform="matrix(0.562089, -0.496544, 0.496544, 0.562089, 588.561241, 468.942308)" fill-opacity="1" fill="#e97b2c" fill-rule="nonzero" stroke-linejoin="round" d="M 2.000456 2.001863 C 1.998025 -1.315207 4.687888 -3.998261 7.997606 -4.000236 C 11.311227 -3.998763 13.997729 -1.312804 13.999705 1.996914 C 14.002135 5.313984 11.316176 8.000486 8.002555 7.999013 C 4.685485 8.001443 1.998983 5.315484 2.000456 2.001863 " stroke="#e97b2c" stroke-width="4" stroke-opacity="1" stroke-miterlimit="4"/><path stroke-linecap="round" transform="matrix(0.562089, -0.496544, 0.496544, 0.562089, 588.561241, 468.942308)" fill-opacity="1" fill="#e97b2c" fill-rule="nonzero" stroke-linejoin="round" d="M 347.581597 1.999386 C 347.580124 5.313007 344.894165 7.999509 341.580544 7.998036 C 338.263474 8.000467 335.576972 5.314508 335.578445 2.000886 C 335.579917 -1.312735 338.265877 -3.999237 341.579498 -3.997764 C 344.896568 -4.000195 347.58307 -1.314236 347.581597 1.999386 " stroke="#e97b2c" stroke-width="4" stroke-opacity="1" stroke-miterlimit="4"/><path stroke-linecap="butt" transform="matrix(-0.546273, 0.513892, -0.513892, -0.546273, 543.535755, 429.018286)" fill="none" stroke-linejoin="miter" d="M -0.000375104 1.49902 L 92.437976 1.498001 " stroke="#e97b2c" stroke-width="3" stroke-opacity="1" stroke-miterlimit="4"/><path stroke-linecap="round" transform="matrix(-0.546273, 0.513892, -0.513892, -0.546273, 543.535755, 429.018286)" fill="none" stroke-linejoin="round" d="M 102.18747 1.502352 C 102.189628 3.985683 100.17306 6.000096 97.689729 6.002254 C 95.202604 6.000844 93.188191 3.984276 93.186033 1.500945 C 93.187443 -0.98618 95.204011 -3.000593 97.691136 -2.999183 C 100.174467 -3.001341 102.18888 -0.984773 102.18747 1.502352 " stroke="#e97b2c" stroke-width="3" stroke-opacity="1" stroke-miterlimit="4"/><path fill="#e97b2c" d="M 530.554688 437.171875 L 532.84375 435.230469 L 534.785156 437.515625 L 532.5 439.460938 M 535.128906 433.289062 L 537.417969 431.347656 L 539.359375 433.632812 L 537.070312 435.574219 M 539.703125 429.40625 L 541.992188 427.464844 L 543.933594 429.75 L 541.644531 431.691406 M 544.277344 425.523438 L 546.566406 423.582031 L 548.507812 425.867188 L 546.21875 427.808594 M 548.851562 421.636719 L 551.136719 419.695312 L 553.078125 421.984375 L 550.792969 423.925781 M 553.425781 417.753906 L 555.710938 415.8125 L 557.652344 418.101562 L 555.367188 420.042969 M 558 413.871094 L 560.285156 411.929688 L 562.226562 414.21875 L 559.941406 416.160156 M 562.574219 409.988281 L 564.859375 408.046875 L 566.800781 410.332031 L 564.515625 412.273438 M 567.144531 406.105469 L 569.433594 404.164062 L 571.375 406.449219 L 569.089844 408.390625 M 571.71875 402.222656 L 574.007812 400.28125 L 575.949219 402.566406 L 573.660156 404.507812 M 576.292969 398.339844 L 578.582031 396.394531 L 580.523438 398.683594 L 578.234375 400.625 M 580.867188 394.453125 L 583.152344 392.511719 L 585.097656 394.800781 L 582.808594 396.742188 M 585.441406 390.570312 L 587.726562 388.628906 L 589.667969 390.917969 L 587.382812 392.859375 M 590.015625 386.6875 L 592.300781 384.746094 L 594.242188 387.03125 L 591.957031 388.972656 M 594.589844 382.804688 L 596.875 380.863281 L 598.816406 383.148438 L 596.53125 385.089844 M 599.164062 378.921875 L 601.449219 376.980469 L 603.390625 379.265625 L 601.105469 381.207031 M 603.734375 375.039062 L 606.023438 373.09375 L 607.964844 375.382812 L 605.675781 377.324219 M 608.308594 371.152344 L 610.597656 369.210938 L 612.539062 371.5 L 610.25 373.441406 M 612.882812 367.269531 L 615.171875 365.328125 L 617.113281 367.617188 L 614.824219 369.558594 M 617.457031 363.386719 L 619.742188 361.445312 L 621.6875 363.730469 L 619.398438 365.671875 M 622.03125 359.503906 L 624.316406 357.5625 L 626.257812 359.847656 L 623.972656 361.789062 M 626.605469 355.621094 L 628.890625 353.679688 L 630.832031 355.964844 L 628.546875 357.90625 M 631.179688 351.738281 L 633.464844 349.792969 L 635.40625 352.082031 L 633.121094 354.023438 M 635.75 347.851562 L 638.039062 345.910156 L 639.980469 348.199219 L 637.695312 350.140625 M 640.324219 343.96875 L 642.613281 342.027344 L 644.554688 344.316406 L 642.265625 346.257812 M 644.898438 340.085938 L 647.1875 338.144531 L 649.128906 340.429688 L 646.839844 342.375 M 649.472656 336.203125 L 651.761719 334.261719 L 653.703125 336.546875 L 651.414062 338.488281 M 654.046875 332.320312 L 656.332031 330.378906 L 658.273438 332.664062 L 655.988281 334.605469 M 658.621094 328.4375 L 660.90625 326.496094 L 662.847656 328.78125 L 660.5625 330.722656 M 663.195312 324.550781 L 665.480469 322.609375 L 667.421875 324.898438 L 665.136719 326.839844 M 667.769531 320.667969 L 670.054688 318.726562 L 671.996094 321.015625 L 669.710938 322.957031 M 672.339844 316.785156 L 674.628906 314.84375 L 676.570312 317.128906 L 674.285156 319.074219 M 676.914062 312.902344 L 679.203125 310.960938 L 681.144531 313.246094 L 678.855469 315.1875 M 681.488281 309.019531 L 683.777344 307.078125 L 685.71875 309.363281 L 683.429688 311.304688 M 686.0625 305.136719 L 688.347656 303.195312 L 690.292969 305.480469 L 688.003906 307.421875 M 690.636719 301.25 L 692.921875 299.308594 L 694.863281 301.597656 L 692.578125 303.539062 M 695.210938 297.367188 L 697.496094 295.425781 L 699.4375 297.714844 L 697.152344 299.65625 M 699.785156 293.484375 L 702.070312 291.542969 L 704.011719 293.828125 L 701.726562 295.773438 M 704.359375 289.601562 L 706.644531 287.660156 L 708.585938 289.945312 L 706.300781 291.886719 M 708.929688 285.71875 L 711.21875 283.777344 L 713.160156 286.0625 L 710.871094 288.003906 M 713.503906 281.835938 L 715.792969 279.894531 L 717.734375 282.179688 L 715.445312 284.121094 M 718.078125 277.949219 L 720.367188 276.007812 L 722.308594 278.296875 L 720.019531 280.238281 M 722.652344 274.066406 L 724.9375 272.125 L 726.882812 274.414062 L 724.59375 276.355469 M 727.226562 270.183594 L 729.511719 268.242188 L 731.453125 270.53125 L 729.167969 272.472656 M 731.800781 266.300781 L 734.085938 264.359375 L 736.027344 266.644531 L 733.742188 268.585938 M 736.375 262.417969 L 738.660156 260.476562 L 740.601562 262.761719 L 738.316406 264.703125 M 740.945312 258.535156 L 743.234375 256.59375 L 745.175781 258.878906 L 742.890625 260.820312 M 745.519531 254.652344 L 747.808594 252.707031 L 749.75 254.996094 L 747.460938 256.9375 M 750.09375 250.765625 L 752.382812 248.824219 L 754.324219 251.113281 L 752.035156 253.054688 M 754.667969 246.882812 L 756.957031 244.941406 L 758.898438 247.230469 L 756.609375 249.171875 M 759.242188 243 L 761.527344 241.058594 L 763.46875 243.34375 L 761.183594 245.285156 M 763.816406 239.117188 L 766.101562 237.175781 L 768.042969 239.460938 L 765.757812 241.402344 M 768.390625 235.234375 L 770.675781 233.292969 L 772.617188 235.578125 L 770.332031 237.519531 M 772.964844 231.351562 L 775.25 229.40625 L 777.191406 231.695312 L 774.90625 233.636719 " fill-opacity="1" fill-rule="nonzero"/><path stroke-linecap="round" transform="matrix(0.571714, -0.485431, 0.485431, 0.571714, 530.556484, 437.17243)" fill-opacity="1" fill="#e97b2c" fill-rule="nonzero" stroke-linejoin="round" d="M 443.192709 1.998907 C 443.193488 5.313343 440.504522 7.997441 437.190085 7.99822 C 433.875649 7.998998 431.18818 5.314002 431.191371 2.002937 C 431.190593 -1.311499 433.875589 -3.998968 437.190025 -3.999747 C 440.504461 -4.000526 443.19193 -1.31553 443.192709 1.998907 " stroke="#e97b2c" stroke-width="4" stroke-opacity="1" stroke-miterlimit="4"/><g fill="#000000" fill-opacity="1"><g transform="translate(526.903756, 438.643827)"><g><path d="M 89.046875 -51.390625 C 89.046875 -45.671875 88.113281 -40.210938 86.25 -35.015625 C 84.394531 -29.828125 81.800781 -25.050781 78.46875 -20.6875 C 75.132812 -16.320312 71.210938 -12.539062 66.703125 -9.34375 C 62.203125 -6.144531 57.300781 -3.648438 52 -1.859375 C 46.707031 -0.0664062 41.207031 0.828125 35.5 0.828125 L 1.75 0.828125 L 1.75 -17.4375 L 35.5 -17.4375 C 40.3125 -17.4375 44.832031 -18.328125 49.0625 -20.109375 C 53.289062 -21.898438 57.019531 -24.378906 60.25 -27.546875 C 63.488281 -30.710938 66.019531 -34.394531 67.84375 -38.59375 C 69.664062 -42.789062 70.578125 -47.296875 70.578125 -52.109375 L 70.578125 -132.6875 L 36.625 -132.6875 L 36.625 -151.15625 L 89.046875 -151.15625 Z M 49.53125 -112.46875 L 36.625 -112.46875 L 36.625 -130.734375 L 68.203125 -130.734375 L 68.203125 -52.109375 C 68.203125 -47.640625 67.34375 -43.441406 65.625 -39.515625 C 63.90625 -35.597656 61.546875 -32.140625 58.546875 -29.140625 C 55.554688 -26.148438 52.082031 -23.8125 48.125 -22.125 C 44.175781 -20.445312 39.96875 -19.609375 35.5 -19.609375 L 1.75 -19.609375 L 1.75 -37.859375 L 35.5 -37.859375 C 38.113281 -37.859375 40.46875 -38.53125 42.5625 -39.875 C 44.65625 -41.21875 46.335938 -42.972656 47.609375 -45.140625 C 48.890625 -47.304688 49.53125 -49.628906 49.53125 -52.109375 Z M 49.53125 -112.46875 "/></g></g></g><g fill="#000000" fill-opacity="1"><g transform="translate(625.027866, 438.643827)"><g><path d="M 121.34375 -103.90625 C 121.34375 -99.570312 120.773438 -95.375 119.640625 -91.3125 C 118.503906 -87.257812 116.90625 -83.441406 114.84375 -79.859375 C 118.757812 -75.660156 121.832031 -70.773438 124.0625 -65.203125 C 126.300781 -59.640625 127.421875 -53.757812 127.421875 -47.5625 C 127.421875 -41.03125 126.195312 -34.890625 123.75 -29.140625 C 121.3125 -23.398438 117.941406 -18.34375 113.640625 -13.96875 C 109.347656 -9.601562 104.363281 -6.203125 98.6875 -3.765625 C 93.007812 -1.328125 86.90625 -0.109375 80.375 -0.109375 L 3.203125 -0.109375 L 3.203125 -151.359375 L 74.078125 -151.359375 C 80.617188 -151.359375 86.722656 -150.140625 92.390625 -147.703125 C 98.066406 -145.265625 103.085938 -141.859375 107.453125 -137.484375 C 111.828125 -133.117188 115.234375 -128.082031 117.671875 -122.375 C 120.117188 -116.664062 121.34375 -110.507812 121.34375 -103.90625 Z M 21.15625 -133.40625 L 21.15625 -18.0625 L 79.96875 -18.0625 C 83.957031 -18.0625 87.722656 -18.832031 91.265625 -20.375 C 94.804688 -21.925781 97.9375 -24.054688 100.65625 -26.765625 C 103.375 -29.484375 105.503906 -32.613281 107.046875 -36.15625 C 108.597656 -39.707031 109.375 -43.507812 109.375 -47.5625 C 109.375 -51.207031 108.734375 -54.679688 107.453125 -57.984375 C 106.179688 -61.285156 104.394531 -64.257812 102.09375 -66.90625 C 99.789062 -69.5625 97.109375 -71.675781 94.046875 -73.25 C 90.984375 -74.832031 87.664062 -75.726562 84.09375 -75.9375 L 84.09375 -76.65625 C 86.976562 -77.34375 89.585938 -78.632812 91.921875 -80.53125 C 94.265625 -82.425781 96.296875 -84.695312 98.015625 -87.34375 C 99.734375 -89.988281 101.054688 -92.738281 101.984375 -95.59375 C 102.921875 -98.445312 103.390625 -101.21875 103.390625 -103.90625 C 103.390625 -108.03125 102.613281 -111.878906 101.0625 -115.453125 C 99.519531 -119.035156 97.367188 -122.164062 94.609375 -124.84375 C 91.859375 -127.53125 88.710938 -129.628906 85.171875 -131.140625 C 81.628906 -132.648438 77.863281 -133.40625 73.875 -133.40625 Z M 23.53125 -76.875 L 74.078125 -76.875 C 77.796875 -76.875 81.285156 -77.578125 84.546875 -78.984375 C 87.816406 -80.390625 90.707031 -82.347656 93.21875 -84.859375 C 95.726562 -87.367188 97.6875 -90.238281 99.09375 -93.46875 C 100.507812 -96.707031 101.21875 -100.1875 101.21875 -103.90625 C 101.21875 -107.6875 100.492188 -111.226562 99.046875 -114.53125 C 97.609375 -117.832031 95.632812 -120.738281 93.125 -123.25 C 90.613281 -125.757812 87.707031 -127.703125 84.40625 -129.078125 C 81.101562 -130.453125 77.59375 -131.101562 73.875 -131.03125 L 23.53125 -131.03125 Z M 82.75 -104.109375 C 82.75 -101.628906 81.890625 -99.492188 80.171875 -97.703125 C 78.453125 -95.921875 76.351562 -95.03125 73.875 -95.03125 L 40.453125 -95.03125 L 40.453125 -113.078125 L 73.875 -113.078125 C 76.351562 -113.078125 78.453125 -112.21875 80.171875 -110.5 C 81.890625 -108.78125 82.75 -106.648438 82.75 -104.109375 Z M 23.53125 -74.703125 L 23.53125 -20.421875 L 79.96875 -20.421875 C 83.75 -20.421875 87.304688 -21.125 90.640625 -22.53125 C 93.972656 -23.945312 96.894531 -25.894531 99.40625 -28.375 C 101.925781 -30.851562 103.90625 -33.742188 105.34375 -37.046875 C 106.789062 -40.347656 107.515625 -43.851562 107.515625 -47.5625 C 107.515625 -51.28125 106.789062 -54.789062 105.34375 -58.09375 C 103.90625 -61.394531 101.925781 -64.28125 99.40625 -66.75 C 96.894531 -69.226562 93.972656 -71.171875 90.640625 -72.578125 C 87.304688 -73.992188 83.75 -74.703125 79.96875 -74.703125 Z M 89.25 -47.5625 C 89.25 -45.082031 88.390625 -42.945312 86.671875 -41.15625 C 84.953125 -39.375 82.851562 -38.484375 80.375 -38.484375 L 40.453125 -38.484375 L 40.453125 -56.640625 L 80.375 -56.640625 C 82.851562 -56.640625 84.953125 -55.742188 86.671875 -53.953125 C 88.390625 -52.171875 89.25 -50.039062 89.25 -47.5625 Z M 89.25 -47.5625 "/></g></g><g transform="translate(758.12997, 438.643827)"><g><path d="M 80.28125 -75.328125 L 80.28125 -94.203125 L 155.390625 -94.203125 L 155.390625 -73.25 C 155.390625 -62.113281 153.582031 -51.988281 149.96875 -42.875 C 146.363281 -33.757812 141.238281 -25.878906 134.59375 -19.234375 C 127.957031 -12.597656 120.066406 -7.492188 110.921875 -3.921875 C 101.773438 -0.347656 91.628906 1.4375 80.484375 1.4375 C 72.023438 1.4375 63.957031 0.148438 56.28125 -2.421875 C 48.613281 -5.003906 41.582031 -8.664062 35.1875 -13.40625 C 28.789062 -18.15625 23.234375 -23.726562 18.515625 -30.125 C 13.804688 -36.519531 10.160156 -43.570312 7.578125 -51.28125 C 5.003906 -58.988281 3.71875 -67.070312 3.71875 -75.53125 C 3.71875 -84.0625 5.003906 -92.160156 7.578125 -99.828125 C 10.160156 -107.492188 13.804688 -114.539062 18.515625 -120.96875 C 23.234375 -127.40625 28.789062 -132.992188 35.1875 -137.734375 C 41.582031 -142.484375 48.628906 -146.148438 56.328125 -148.734375 C 64.035156 -151.316406 72.15625 -152.609375 80.6875 -152.609375 C 88.320312 -152.609375 95.59375 -151.539062 102.5 -149.40625 C 109.414062 -147.269531 115.898438 -144.347656 121.953125 -140.640625 L 112.671875 -124.53125 C 108.203125 -127.425781 103.234375 -129.710938 97.765625 -131.390625 C 92.296875 -133.078125 86.601562 -133.921875 80.6875 -133.921875 C 72.570312 -133.921875 64.988281 -132.40625 57.9375 -129.375 C 50.882812 -126.351562 44.691406 -122.160156 39.359375 -116.796875 C 34.023438 -111.429688 29.863281 -105.222656 26.875 -98.171875 C 23.882812 -91.117188 22.390625 -83.570312 22.390625 -75.53125 C 22.390625 -67.476562 23.882812 -59.941406 26.875 -52.921875 C 29.863281 -45.910156 33.988281 -39.738281 39.25 -34.40625 C 44.519531 -29.082031 50.660156 -24.90625 57.671875 -21.875 C 64.691406 -18.84375 72.226562 -17.296875 80.28125 -17.234375 C 86.601562 -17.160156 92.6875 -18.085938 98.53125 -20.015625 C 104.382812 -21.941406 109.75 -24.675781 114.625 -28.21875 C 119.507812 -31.757812 123.773438 -35.972656 127.421875 -40.859375 C 131.066406 -45.742188 133.90625 -51.09375 135.9375 -56.90625 C 137.96875 -62.71875 139.019531 -68.859375 139.09375 -75.328125 Z M 80.6875 -131.546875 C 86.394531 -131.546875 91.878906 -130.738281 97.140625 -129.125 C 102.398438 -127.507812 107.234375 -125.257812 111.640625 -122.375 L 102.65625 -106.0625 C 99.5 -108.195312 96.046875 -109.898438 92.296875 -111.171875 C 88.546875 -112.441406 84.675781 -113.078125 80.6875 -113.078125 C 75.53125 -113.078125 70.660156 -112.113281 66.078125 -110.1875 C 61.503906 -108.269531 57.5 -105.585938 54.0625 -102.140625 C 50.625 -98.703125 47.925781 -94.710938 45.96875 -90.171875 C 44.007812 -85.640625 43.03125 -80.757812 43.03125 -75.53125 C 43.03125 -70.375 43.988281 -65.523438 45.90625 -60.984375 C 47.832031 -56.441406 50.515625 -52.445312 53.953125 -49 C 57.398438 -45.5625 61.390625 -42.863281 65.921875 -40.90625 C 70.460938 -38.945312 75.316406 -37.929688 80.484375 -37.859375 C 86.742188 -37.859375 92.675781 -39.351562 98.28125 -42.34375 C 103.882812 -45.34375 108.40625 -49.421875 111.84375 -54.578125 L 80.28125 -54.578125 L 80.28125 -73.25 L 136.71875 -73.25 C 136.4375 -65.820312 134.75 -58.84375 131.65625 -52.3125 C 128.5625 -45.78125 124.429688 -40.050781 119.265625 -35.125 C 114.109375 -30.207031 108.191406 -26.351562 101.515625 -23.5625 C 94.847656 -20.78125 87.769531 -19.390625 80.28125 -19.390625 C 72.570312 -19.460938 65.347656 -20.957031 58.609375 -23.875 C 51.867188 -26.800781 45.953125 -30.828125 40.859375 -35.953125 C 35.765625 -41.078125 31.773438 -47.023438 28.890625 -53.796875 C 26.003906 -60.578125 24.5625 -67.820312 24.5625 -75.53125 C 24.5625 -83.300781 26.003906 -90.570312 28.890625 -97.34375 C 31.773438 -104.125 35.796875 -110.078125 40.953125 -115.203125 C 46.117188 -120.328125 52.085938 -124.332031 58.859375 -127.21875 C 65.640625 -130.101562 72.914062 -131.546875 80.6875 -131.546875 Z M 80.6875 -131.546875 "/></g></g></g><path stroke-linecap="butt" transform="matrix(0.567261, -0.490627, 0.490627, 0.567261, 628.558967, 456.802029)" fill="none" stroke-linejoin="miter" d="M 15.000804 2.002425 L 97.501887 1.996785 " stroke="#e97b2c" stroke-width="4" stroke-opacity="1" stroke-miterlimit="4"/><path stroke-linecap="round" transform="matrix(0.567261, -0.490627, 0.490627, 0.567261, 628.558967, 456.802029)" fill="none" stroke-linejoin="round" d="M 1.999534 2.002655 C 2.003019 -1.313461 4.684848 -4.00017 7.997025 -4.000093 C 11.316548 -4.000548 13.99985 -1.314779 13.999773 1.997398 C 14.000228 5.316921 11.314459 8.000223 8.002282 8.000146 C 4.686166 7.996662 1.999457 5.314832 1.999534 2.002655 " stroke="#e97b2c" stroke-width="4" stroke-opacity="1" stroke-miterlimit="4"/><path stroke-linecap="round" transform="matrix(0.567261, -0.490627, 0.490627, 0.567261, 628.558967, 456.802029)" fill-opacity="1" fill="#e97b2c" fill-rule="nonzero" stroke-linejoin="round" d="M 110.49975 2.000494 C 110.499673 5.312671 107.817843 7.99938 104.502259 8.003242 C 101.186143 7.999758 98.502841 5.313989 98.502918 2.001812 C 98.499056 -1.313772 101.188233 -4.001013 104.500409 -4.000936 C 107.816525 -3.997452 110.503234 -1.315622 110.49975 2.000494 " stroke="#e97b2c" stroke-width="4" stroke-opacity="1" stroke-miterlimit="4"/><path stroke-linecap="butt" transform="matrix(-0.561776, 0.496898, -0.496898, -0.561776, 787.035087, 320.719341)" fill="none" stroke-linejoin="miter" d="M 15.002712 1.999691 L 80.591978 2.002071 " stroke="#e97b2c" stroke-width="4" stroke-opacity="1" stroke-miterlimit="4"/><path stroke-linecap="round" transform="matrix(-0.561776, 0.496898, -0.496898, -0.561776, 787.035087, 320.719341)" fill="none" stroke-linejoin="round" d="M 1.999999 1.999538 C 2.000109 -1.310181 4.687309 -4.002342 8.000929 -3.998781 C 11.314099 -4.002573 13.998908 -1.314922 13.999249 2.002149 C 13.999139 5.311868 11.315389 8.000128 7.998318 8.000468 C 4.688599 8.000359 2.000339 5.316609 1.999999 1.999538 " stroke="#e97b2c" stroke-width="4" stroke-opacity="1" stroke-miterlimit="4"/><path stroke-linecap="butt" transform="matrix(0.602358, -0.446839, 0.446839, 0.602358, 793.738094, 289.130161)" fill="none" stroke-linejoin="miter" d="M 15.000477 2.001208 L 54.546851 1.999501 " stroke="#e97b2c" stroke-width="4" stroke-opacity="1" stroke-miterlimit="4"/><path stroke-linecap="round" transform="matrix(0.602358, -0.446839, 0.446839, 0.602358, 793.738094, 289.130161)" fill="none" stroke-linejoin="round" d="M 1.999247 1.999784 C 1.99953 -1.313805 4.687515 -4.001935 8.001105 -4.001652 C 11.314694 -4.001368 14.002824 -1.313383 14.002541 2.000206 C 14.002257 5.313795 11.314272 8.001926 8.000683 8.001642 C 4.687094 8.001359 1.998963 5.313374 1.999247 1.999784 " stroke="#e97b2c" stroke-width="4" stroke-opacity="1" stroke-miterlimit="4"/><path stroke-linecap="round" transform="matrix(0.602358, -0.446839, 0.446839, 0.602358, 793.738094, 289.130161)" fill-opacity="1" fill="#e97b2c" fill-rule="nonzero" stroke-linejoin="round" d="M 67.548081 2.000925 C 67.547797 5.314514 64.862915 7.998461 61.549326 7.998178 C 58.235737 7.997894 55.551789 5.313012 55.552073 1.999423 C 55.552356 -1.314166 58.233055 -4.001217 61.546644 -4.000933 C 64.860233 -4.00065 67.548364 -1.312665 67.548081 2.000925 " stroke="#e97b2c" stroke-width="4" stroke-opacity="1" stroke-miterlimit="4"/></svg>