<svg xmlns="http://www.w3.org/2000/svg" xmlns:xlink="http://www.w3.org/1999/xlink" width="1920" zoomAndPan="magnify" viewBox="0 0 1440 809.999993" height="1080" preserveAspectRatio="xMidYMid meet" version="1.0"><defs><g/></defs><rect x="-144" width="1728" fill="#ffffff" y="-80.999999" height="971.999992" fill-opacity="1"/><rect x="-144" width="1728" fill="#323e4a" y="-80.999999" height="971.999992" fill-opacity="1"/><path stroke-linecap="butt" transform="matrix(0.562939, -0.49558, 0.49558, 0.562939, 516.881044, 488.336659)" fill="none" stroke-linejoin="miter" d="M 44.999954 6.001495 L 464.383591 5.998407 " stroke="#e97b2c" stroke-width="12" stroke-opacity="1" stroke-miterlimit="4"/><path stroke-linecap="round" transform="matrix(0.562939, -0.49558, 0.49558, 0.562939, 516.881044, 488.336659)" fill="none" stroke-linejoin="round" d="M 5.9971 5.999885 C 5.999181 -3.941908 14.05887 -12.001447 24.000663 -11.999366 C 33.938547 -12.000726 41.998086 -3.941037 41.999446 5.996847 C 42.001274 15.942082 33.941585 24.001621 23.999792 23.999539 C 14.057999 23.997458 6.002369 15.94121 5.9971 5.999885 " stroke="#e97b2c" stroke-width="12" stroke-opacity="1" stroke-miterlimit="4"/><path stroke-linecap="round" transform="matrix(0.562939, -0.49558, 0.49558, 0.562939, 516.881044, 488.336659)" fill="none" stroke-linejoin="round" d="M 503.386446 6.000017 C 503.384364 15.94181 495.324675 24.001349 485.382882 23.999268 C 475.444998 24.000628 467.385459 15.940939 467.38754 5.999145 C 467.38618 -3.938739 475.445869 -11.998278 485.383753 -11.999638 C 495.325547 -11.997556 503.385086 -3.937867 503.386446 6.000017 " stroke="#e97b2c" stroke-width="12" stroke-opacity="1" stroke-miterlimit="4"/><path stroke-linecap="butt" transform="matrix(-0.549858, 0.510055, -0.510055, -0.549858, 589.320745, 327.121117)" fill="none" stroke-linejoin="miter" d="M 0.0014459 1.500351 L 100.88679 1.500488 " stroke="#e97b2c" stroke-width="3" stroke-opacity="1" stroke-miterlimit="4"/><path stroke-linecap="round" transform="matrix(-0.549858, 0.510055, -0.510055, -0.549858, 589.320745, 327.121117)" fill="none" stroke-linejoin="round" d="M 110.634744 1.499286 C 110.632206 3.983371 108.618335 6.001226 106.13425 5.998688 C 103.646624 5.999968 101.63613 3.985821 101.634849 1.498194 C 101.633845 -0.982072 103.647716 -2.999927 106.135342 -3.001207 C 108.619427 -2.998669 110.633463 -0.98834 110.634744 1.499286 " stroke="#e97b2c" stroke-width="3" stroke-opacity="1" stroke-miterlimit="4"/><path fill="#e97b2c" d="M 562.882812 470.058594 L 565.144531 468.085938 L 567.117188 470.347656 L 564.855469 472.320312 M 567.402344 466.113281 L 569.664062 464.140625 L 571.636719 466.398438 L 569.375 468.371094 M 571.921875 462.167969 L 574.183594 460.191406 L 576.15625 462.453125 L 573.894531 464.425781 M 576.441406 458.21875 L 578.703125 456.246094 L 580.675781 458.507812 L 578.414062 460.480469 M 580.960938 454.273438 L 583.222656 452.300781 L 585.195312 454.558594 L 582.933594 456.53125 M 585.480469 450.328125 L 587.738281 448.351562 L 589.714844 450.613281 L 587.453125 452.585938 M 590 446.378906 L 592.257812 444.40625 L 594.234375 446.667969 L 591.972656 448.640625 M 594.519531 442.433594 L 596.777344 440.460938 L 598.753906 442.71875 L 596.492188 444.691406 M 599.039062 438.488281 L 601.296875 436.515625 L 603.269531 438.773438 L 601.011719 440.746094 M 603.558594 434.539062 L 605.816406 432.566406 L 607.789062 434.828125 L 605.53125 436.800781 M 608.078125 430.59375 L 610.335938 428.621094 L 612.308594 430.878906 L 610.050781 432.851562 M 612.597656 426.648438 L 614.855469 424.675781 L 616.828125 426.933594 L 614.570312 428.90625 M 617.117188 422.699219 L 619.375 420.726562 L 621.347656 422.988281 L 619.089844 424.960938 M 621.636719 418.753906 L 623.894531 416.78125 L 625.867188 419.039062 L 623.609375 421.015625 M 626.15625 414.808594 L 628.414062 412.835938 L 630.386719 415.09375 L 628.128906 417.066406 M 630.675781 410.859375 L 632.933594 408.886719 L 634.90625 411.148438 L 632.648438 413.121094 M 635.191406 406.914062 L 637.453125 404.941406 L 639.425781 407.199219 L 637.167969 409.175781 M 639.710938 402.96875 L 641.972656 400.996094 L 643.945312 403.253906 L 641.6875 405.226562 M 644.230469 399.019531 L 646.492188 397.046875 L 648.464844 399.308594 L 646.207031 401.28125 M 648.75 395.074219 L 651.011719 393.101562 L 652.984375 395.359375 L 650.722656 397.335938 M 653.269531 391.128906 L 655.53125 389.15625 L 657.503906 391.414062 L 655.242188 393.386719 M 657.789062 387.179688 L 660.050781 385.207031 L 662.023438 387.46875 L 659.761719 389.441406 M 662.308594 383.234375 L 664.570312 381.261719 L 666.542969 383.519531 L 664.28125 385.496094 M 666.828125 379.289062 L 669.089844 377.316406 L 671.0625 379.574219 L 668.800781 381.546875 M 671.347656 375.339844 L 673.609375 373.367188 L 675.582031 375.628906 L 673.320312 377.601562 M 675.867188 371.394531 L 678.128906 369.421875 L 680.101562 371.679688 L 677.839844 373.65625 M 680.386719 367.449219 L 682.644531 365.476562 L 684.621094 367.734375 L 682.359375 369.707031 M 684.90625 363.5 L 687.164062 361.527344 L 689.140625 363.789062 L 686.878906 365.761719 M 689.425781 359.554688 L 691.683594 357.582031 L 693.660156 359.839844 L 691.398438 361.816406 M 693.945312 355.609375 L 696.203125 353.636719 L 698.175781 355.894531 L 695.917969 357.867188 M 698.464844 351.660156 L 700.722656 349.6875 L 702.695312 351.949219 L 700.4375 353.921875 M 702.984375 347.714844 L 705.242188 345.742188 L 707.214844 348 L 704.957031 349.976562 M 707.503906 343.769531 L 709.761719 341.796875 L 711.734375 344.054688 L 709.476562 346.027344 M 712.023438 339.824219 L 714.28125 337.847656 L 716.253906 340.109375 L 713.996094 342.082031 M 716.542969 335.875 L 718.800781 333.902344 L 720.773438 336.164062 L 718.515625 338.136719 M 721.0625 331.929688 L 723.320312 329.957031 L 725.292969 332.214844 L 723.035156 334.1875 M 725.582031 327.984375 L 727.839844 326.007812 L 729.8125 328.269531 L 727.554688 330.242188 M 730.097656 324.035156 L 732.359375 322.0625 L 734.332031 324.324219 L 732.074219 326.296875 M 734.617188 320.089844 L 736.878906 318.117188 L 738.851562 320.375 L 736.59375 322.347656 M 739.136719 316.144531 L 741.398438 314.167969 L 743.371094 316.429688 L 741.113281 318.402344 M 743.65625 312.195312 L 745.917969 310.222656 L 747.890625 312.484375 L 745.628906 314.457031 M 748.175781 308.25 L 750.4375 306.277344 L 752.410156 308.535156 L 750.148438 310.507812 M 752.695312 304.304688 L 754.957031 302.328125 L 756.929688 304.589844 L 754.667969 306.5625 M 757.214844 300.355469 L 759.476562 298.382812 L 761.449219 300.644531 L 759.1875 302.617188 M 761.734375 296.410156 L 763.996094 294.4375 L 765.96875 296.695312 L 763.707031 298.667969 M 766.253906 292.464844 L 768.515625 290.488281 L 770.488281 292.75 L 768.226562 294.722656 M 770.773438 288.515625 L 773.035156 286.542969 L 775.007812 288.804688 L 772.746094 290.777344 M 775.292969 284.570312 L 777.550781 282.597656 L 779.527344 284.855469 L 777.265625 286.828125 M 779.8125 280.625 L 782.070312 278.648438 L 784.046875 280.910156 L 781.785156 282.882812 M 784.332031 276.675781 L 785.128906 275.980469 L 787.101562 278.238281 L 786.304688 278.9375 " fill-opacity="1" fill-rule="nonzero"/><path fill="#e97b2c" d="M 596.992188 461.496094 L 603.738281 455.535156 L 605.722656 457.785156 L 598.980469 463.742188 M 605.984375 453.550781 L 612.730469 447.589844 L 614.71875 449.839844 L 607.972656 455.796875 M 614.980469 445.605469 L 621.722656 439.644531 L 623.710938 441.894531 L 616.964844 447.851562 M 623.972656 437.660156 L 630.71875 431.703125 L 632.703125 433.949219 L 625.960938 439.910156 M 632.964844 429.714844 L 639.710938 423.757812 L 641.699219 426.003906 L 634.953125 431.964844 M 641.960938 421.769531 L 648.703125 415.8125 L 650.691406 418.058594 L 643.945312 424.019531 M 650.953125 413.824219 L 657.699219 407.867188 L 659.683594 410.117188 L 652.9375 416.074219 M 659.945312 405.882812 L 666.691406 399.921875 L 668.679688 402.171875 L 661.933594 408.128906 M 668.941406 397.9375 L 675.683594 391.976562 L 677.671875 394.226562 L 670.925781 400.183594 M 677.933594 389.992188 L 684.679688 384.035156 L 686.664062 386.28125 L 679.917969 392.238281 M 686.925781 382.046875 L 693.671875 376.089844 L 695.65625 378.335938 L 688.914062 384.296875 M 695.921875 374.101562 L 702.664062 368.144531 L 704.652344 370.390625 L 697.90625 376.351562 M 704.914062 366.15625 L 711.660156 360.199219 L 713.644531 362.449219 L 706.898438 368.40625 M 713.90625 358.214844 L 720.652344 352.253906 L 722.636719 354.503906 L 715.894531 360.460938 M 722.902344 350.269531 L 729.644531 344.308594 L 731.632812 346.558594 L 724.886719 352.515625 M 731.894531 342.324219 L 738.640625 336.363281 L 740.625 338.613281 L 733.878906 344.570312 M 740.886719 334.378906 L 747.632812 328.421875 L 749.617188 330.667969 L 742.875 336.628906 M 749.878906 326.433594 L 756.625 320.476562 L 758.613281 322.722656 L 751.867188 328.683594 M 758.875 318.488281 L 765.621094 312.53125 L 767.605469 314.78125 L 760.859375 320.738281 M 767.867188 310.542969 L 774.613281 304.585938 L 776.597656 306.835938 L 769.855469 312.792969 " fill-opacity="1" fill-rule="nonzero"/><path stroke-linecap="round" transform="matrix(0.562089, -0.496544, 0.496544, 0.562089, 588.561241, 468.942356)" fill-opacity="1" fill="#e97b2c" fill-rule="nonzero" stroke-linejoin="round" d="M 2.000498 2.001815 C 1.998067 -1.315255 4.68793 -3.998309 7.997648 -4.000284 C 11.31127 -3.998811 13.997772 -1.312852 13.999747 1.996866 C 14.002178 5.313936 11.316219 8.000438 8.002597 7.998965 C 4.685527 8.001395 1.999025 5.315436 2.000498 2.001815 " stroke="#e97b2c" stroke-width="4" stroke-opacity="1" stroke-miterlimit="4"/><path stroke-linecap="round" transform="matrix(0.562089, -0.496544, 0.496544, 0.562089, 588.561241, 468.942356)" fill-opacity="1" fill="#e97b2c" fill-rule="nonzero" stroke-linejoin="round" d="M 347.581639 1.999338 C 347.580167 5.312959 344.894207 7.999461 341.580586 7.997988 C 338.263516 8.000419 335.577014 5.31446 335.578487 2.000838 C 335.57996 -1.312783 338.265919 -3.999285 341.579541 -3.997812 C 344.89661 -4.000243 347.579664 -1.31038 347.581639 1.999338 " stroke="#e97b2c" stroke-width="4" stroke-opacity="1" stroke-miterlimit="4"/><path stroke-linecap="butt" transform="matrix(-0.546273, 0.513892, -0.513892, -0.546273, 543.535755, 429.01831)" fill="none" stroke-linejoin="miter" d="M -0.00039703 1.499043 L 92.437954 1.498025 " stroke="#e97b2c" stroke-width="3" stroke-opacity="1" stroke-miterlimit="4"/><path stroke-linecap="round" transform="matrix(-0.546273, 0.513892, -0.513892, -0.546273, 543.535755, 429.01831)" fill="none" stroke-linejoin="round" d="M 102.187448 1.502375 C 102.189606 3.985706 100.173039 6.000119 97.689707 6.002278 C 95.202582 6.000867 93.188169 3.9843 93.186011 1.500968 C 93.187421 -0.986157 95.203989 -3.000569 97.691114 -2.999159 C 100.174445 -3.001318 102.188858 -0.98475 102.187448 1.502375 " stroke="#e97b2c" stroke-width="3" stroke-opacity="1" stroke-miterlimit="4"/><path fill="#e97b2c" d="M 530.554688 437.171875 L 532.84375 435.230469 L 534.785156 437.519531 L 532.5 439.460938 M 535.128906 433.289062 L 537.417969 431.347656 L 539.359375 433.632812 L 537.070312 435.574219 M 539.703125 429.40625 L 541.992188 427.464844 L 543.933594 429.75 L 541.644531 431.691406 M 544.277344 425.523438 L 546.566406 423.582031 L 548.507812 425.867188 L 546.21875 427.808594 M 548.851562 421.640625 L 551.136719 419.695312 L 553.078125 421.984375 L 550.792969 423.925781 M 553.425781 417.753906 L 555.710938 415.8125 L 557.652344 418.101562 L 555.367188 420.042969 M 558 413.871094 L 560.285156 411.929688 L 562.226562 414.21875 L 559.941406 416.160156 M 562.574219 409.988281 L 564.859375 408.046875 L 566.800781 410.332031 L 564.515625 412.273438 M 567.144531 406.105469 L 569.433594 404.164062 L 571.375 406.449219 L 569.089844 408.390625 M 571.71875 402.222656 L 574.007812 400.28125 L 575.949219 402.566406 L 573.660156 404.507812 M 576.292969 398.339844 L 578.582031 396.394531 L 580.523438 398.683594 L 578.234375 400.625 M 580.867188 394.453125 L 583.152344 392.511719 L 585.097656 394.800781 L 582.808594 396.742188 M 585.441406 390.570312 L 587.726562 388.628906 L 589.667969 390.917969 L 587.382812 392.859375 M 590.015625 386.6875 L 592.300781 384.746094 L 594.242188 387.03125 L 591.957031 388.972656 M 594.589844 382.804688 L 596.875 380.863281 L 598.816406 383.148438 L 596.53125 385.089844 M 599.164062 378.921875 L 601.449219 376.980469 L 603.390625 379.265625 L 601.105469 381.207031 M 603.734375 375.039062 L 606.023438 373.09375 L 607.964844 375.382812 L 605.675781 377.324219 M 608.308594 371.152344 L 610.597656 369.210938 L 612.539062 371.5 L 610.25 373.441406 M 612.882812 367.269531 L 615.171875 365.328125 L 617.113281 367.617188 L 614.824219 369.558594 M 617.457031 363.386719 L 619.742188 361.445312 L 621.6875 363.730469 L 619.398438 365.675781 M 622.03125 359.503906 L 624.316406 357.5625 L 626.257812 359.847656 L 623.972656 361.789062 M 626.605469 355.621094 L 628.890625 353.679688 L 630.832031 355.964844 L 628.546875 357.90625 M 631.179688 351.738281 L 633.464844 349.796875 L 635.40625 352.082031 L 633.121094 354.023438 M 635.75 347.851562 L 638.039062 345.910156 L 639.980469 348.199219 L 637.695312 350.140625 M 640.324219 343.96875 L 642.613281 342.027344 L 644.554688 344.316406 L 642.265625 346.257812 M 644.898438 340.085938 L 647.1875 338.144531 L 649.128906 340.429688 L 646.839844 342.375 M 649.472656 336.203125 L 651.761719 334.261719 L 653.703125 336.546875 L 651.414062 338.488281 M 654.046875 332.320312 L 656.332031 330.378906 L 658.273438 332.664062 L 655.988281 334.605469 M 658.621094 328.4375 L 660.90625 326.496094 L 662.847656 328.78125 L 660.5625 330.722656 M 663.195312 324.550781 L 665.480469 322.609375 L 667.421875 324.898438 L 665.136719 326.839844 M 667.769531 320.667969 L 670.054688 318.726562 L 671.996094 321.015625 L 669.710938 322.957031 M 672.339844 316.785156 L 674.628906 314.84375 L 676.570312 317.128906 L 674.285156 319.074219 M 676.914062 312.902344 L 679.203125 310.960938 L 681.144531 313.246094 L 678.855469 315.1875 M 681.488281 309.019531 L 683.777344 307.078125 L 685.71875 309.363281 L 683.429688 311.304688 M 686.0625 305.136719 L 688.347656 303.195312 L 690.292969 305.480469 L 688.003906 307.421875 M 690.636719 301.25 L 692.921875 299.308594 L 694.863281 301.597656 L 692.578125 303.539062 M 695.210938 297.367188 L 697.496094 295.425781 L 699.4375 297.714844 L 697.152344 299.65625 M 699.785156 293.484375 L 702.070312 291.542969 L 704.011719 293.832031 L 701.726562 295.773438 M 704.359375 289.601562 L 706.644531 287.660156 L 708.585938 289.945312 L 706.300781 291.886719 M 708.929688 285.71875 L 711.21875 283.777344 L 713.160156 286.0625 L 710.871094 288.003906 M 713.503906 281.835938 L 715.792969 279.894531 L 717.734375 282.179688 L 715.445312 284.121094 M 718.078125 277.949219 L 720.367188 276.007812 L 722.308594 278.296875 L 720.019531 280.238281 M 722.652344 274.066406 L 724.9375 272.125 L 726.882812 274.414062 L 724.59375 276.355469 M 727.226562 270.183594 L 729.511719 268.242188 L 731.453125 270.53125 L 729.167969 272.472656 M 731.800781 266.300781 L 734.085938 264.359375 L 736.027344 266.644531 L 733.742188 268.585938 M 736.375 262.417969 L 738.660156 260.476562 L 740.601562 262.761719 L 738.316406 264.703125 M 740.945312 258.535156 L 743.234375 256.59375 L 745.175781 258.878906 L 742.890625 260.820312 M 745.519531 254.652344 L 747.808594 252.707031 L 749.75 254.996094 L 747.460938 256.9375 M 750.09375 250.765625 L 752.382812 248.824219 L 754.324219 251.113281 L 752.035156 253.054688 M 754.667969 246.882812 L 756.957031 244.941406 L 758.898438 247.230469 L 756.609375 249.171875 M 759.242188 243 L 761.527344 241.058594 L 763.46875 243.34375 L 761.183594 245.285156 M 763.816406 239.117188 L 766.101562 237.175781 L 768.042969 239.460938 L 765.757812 241.402344 M 768.390625 235.234375 L 770.675781 233.292969 L 772.617188 235.578125 L 770.332031 237.519531 M 772.964844 231.351562 L 775.25 229.40625 L 777.191406 231.695312 L 774.90625 233.636719 " fill-opacity="1" fill-rule="nonzero"/><path stroke-linecap="round" transform="matrix(0.571714, -0.485431, 0.485431, 0.571714, 530.556484, 437.172502)" fill-opacity="1" fill="#e97b2c" fill-rule="nonzero" stroke-linejoin="round" d="M 443.192771 1.998833 C 443.19355 5.31327 440.504584 7.997368 437.190148 7.998147 C 433.875711 7.998925 431.188242 5.313929 431.191434 2.002864 C 431.190655 -1.311572 433.875651 -3.999041 437.190087 -3.99982 C 440.504523 -4.000599 443.191993 -1.315603 443.192771 1.998833 " stroke="#e97b2c" stroke-width="4" stroke-opacity="1" stroke-miterlimit="4"/><g fill="#f9f9f8" fill-opacity="1"><g transform="translate(526.903756, 438.643798)"><g><path d="M 89.046875 -51.390625 C 89.046875 -45.671875 88.113281 -40.210938 86.25 -35.015625 C 84.394531 -29.828125 81.800781 -25.050781 78.46875 -20.6875 C 75.132812 -16.320312 71.210938 -12.539062 66.703125 -9.34375 C 62.203125 -6.144531 57.300781 -3.648438 52 -1.859375 C 46.707031 -0.0664062 41.207031 0.828125 35.5 0.828125 L 1.75 0.828125 L 1.75 -17.4375 L 35.5 -17.4375 C 40.3125 -17.4375 44.832031 -18.328125 49.0625 -20.109375 C 53.289062 -21.898438 57.019531 -24.378906 60.25 -27.546875 C 63.488281 -30.710938 66.019531 -34.394531 67.84375 -38.59375 C 69.664062 -42.789062 70.578125 -47.296875 70.578125 -52.109375 L 70.578125 -132.6875 L 36.625 -132.6875 L 36.625 -151.15625 L 89.046875 -151.15625 Z M 49.53125 -112.46875 L 36.625 -112.46875 L 36.625 -130.734375 L 68.203125 -130.734375 L 68.203125 -52.109375 C 68.203125 -47.640625 67.34375 -43.441406 65.625 -39.515625 C 63.90625 -35.597656 61.546875 -32.140625 58.546875 -29.140625 C 55.554688 -26.148438 52.082031 -23.8125 48.125 -22.125 C 44.175781 -20.445312 39.96875 -19.609375 35.5 -19.609375 L 1.75 -19.609375 L 1.75 -37.859375 L 35.5 -37.859375 C 38.113281 -37.859375 40.46875 -38.53125 42.5625 -39.875 C 44.65625 -41.21875 46.335938 -42.972656 47.609375 -45.140625 C 48.890625 -47.304688 49.53125 -49.628906 49.53125 -52.109375 Z M 49.53125 -112.46875 "/></g></g></g><g fill="#f9f9f8" fill-opacity="1"><g transform="translate(625.027866, 438.643798)"><g><path d="M 121.34375 -103.90625 C 121.34375 -99.570312 120.773438 -95.375 119.640625 -91.3125 C 118.503906 -87.257812 116.90625 -83.441406 114.84375 -79.859375 C 118.757812 -75.660156 121.832031 -70.773438 124.0625 -65.203125 C 126.300781 -59.640625 127.421875 -53.757812 127.421875 -47.5625 C 127.421875 -41.03125 126.195312 -34.890625 123.75 -29.140625 C 121.3125 -23.398438 117.941406 -18.34375 113.640625 -13.96875 C 109.347656 -9.601562 104.363281 -6.203125 98.6875 -3.765625 C 93.007812 -1.328125 86.90625 -0.109375 80.375 -0.109375 L 3.203125 -0.109375 L 3.203125 -151.359375 L 74.078125 -151.359375 C 80.617188 -151.359375 86.722656 -150.140625 92.390625 -147.703125 C 98.066406 -145.265625 103.085938 -141.859375 107.453125 -137.484375 C 111.828125 -133.117188 115.234375 -128.082031 117.671875 -122.375 C 120.117188 -116.664062 121.34375 -110.507812 121.34375 -103.90625 Z M 21.15625 -133.40625 L 21.15625 -18.0625 L 79.96875 -18.0625 C 83.957031 -18.0625 87.722656 -18.832031 91.265625 -20.375 C 94.804688 -21.925781 97.9375 -24.054688 100.65625 -26.765625 C 103.375 -29.484375 105.503906 -32.613281 107.046875 -36.15625 C 108.597656 -39.707031 109.375 -43.507812 109.375 -47.5625 C 109.375 -51.207031 108.734375 -54.679688 107.453125 -57.984375 C 106.179688 -61.285156 104.394531 -64.257812 102.09375 -66.90625 C 99.789062 -69.5625 97.109375 -71.675781 94.046875 -73.25 C 90.984375 -74.832031 87.664062 -75.726562 84.09375 -75.9375 L 84.09375 -76.65625 C 86.976562 -77.34375 89.585938 -78.632812 91.921875 -80.53125 C 94.265625 -82.425781 96.296875 -84.695312 98.015625 -87.34375 C 99.734375 -89.988281 101.054688 -92.738281 101.984375 -95.59375 C 102.921875 -98.445312 103.390625 -101.21875 103.390625 -103.90625 C 103.390625 -108.03125 102.613281 -111.878906 101.0625 -115.453125 C 99.519531 -119.035156 97.367188 -122.164062 94.609375 -124.84375 C 91.859375 -127.53125 88.710938 -129.628906 85.171875 -131.140625 C 81.628906 -132.648438 77.863281 -133.40625 73.875 -133.40625 Z M 23.53125 -76.875 L 74.078125 -76.875 C 77.796875 -76.875 81.285156 -77.578125 84.546875 -78.984375 C 87.816406 -80.390625 90.707031 -82.347656 93.21875 -84.859375 C 95.726562 -87.367188 97.6875 -90.238281 99.09375 -93.46875 C 100.507812 -96.707031 101.21875 -100.1875 101.21875 -103.90625 C 101.21875 -107.6875 100.492188 -111.226562 99.046875 -114.53125 C 97.609375 -117.832031 95.632812 -120.738281 93.125 -123.25 C 90.613281 -125.757812 87.707031 -127.703125 84.40625 -129.078125 C 81.101562 -130.453125 77.59375 -131.101562 73.875 -131.03125 L 23.53125 -131.03125 Z M 82.75 -104.109375 C 82.75 -101.628906 81.890625 -99.492188 80.171875 -97.703125 C 78.453125 -95.921875 76.351562 -95.03125 73.875 -95.03125 L 40.453125 -95.03125 L 40.453125 -113.078125 L 73.875 -113.078125 C 76.351562 -113.078125 78.453125 -112.21875 80.171875 -110.5 C 81.890625 -108.78125 82.75 -106.648438 82.75 -104.109375 Z M 23.53125 -74.703125 L 23.53125 -20.421875 L 79.96875 -20.421875 C 83.75 -20.421875 87.304688 -21.125 90.640625 -22.53125 C 93.972656 -23.945312 96.894531 -25.894531 99.40625 -28.375 C 101.925781 -30.851562 103.90625 -33.742188 105.34375 -37.046875 C 106.789062 -40.347656 107.515625 -43.851562 107.515625 -47.5625 C 107.515625 -51.28125 106.789062 -54.789062 105.34375 -58.09375 C 103.90625 -61.394531 101.925781 -64.28125 99.40625 -66.75 C 96.894531 -69.226562 93.972656 -71.171875 90.640625 -72.578125 C 87.304688 -73.992188 83.75 -74.703125 79.96875 -74.703125 Z M 89.25 -47.5625 C 89.25 -45.082031 88.390625 -42.945312 86.671875 -41.15625 C 84.953125 -39.375 82.851562 -38.484375 80.375 -38.484375 L 40.453125 -38.484375 L 40.453125 -56.640625 L 80.375 -56.640625 C 82.851562 -56.640625 84.953125 -55.742188 86.671875 -53.953125 C 88.390625 -52.171875 89.25 -50.039062 89.25 -47.5625 Z M 89.25 -47.5625 "/></g></g><g transform="translate(758.12997, 438.643798)"><g><path d="M 80.28125 -75.328125 L 80.28125 -94.203125 L 155.390625 -94.203125 L 155.390625 -73.25 C 155.390625 -62.113281 153.582031 -51.988281 149.96875 -42.875 C 146.363281 -33.757812 141.238281 -25.878906 134.59375 -19.234375 C 127.957031 -12.597656 120.066406 -7.492188 110.921875 -3.921875 C 101.773438 -0.347656 91.628906 1.4375 80.484375 1.4375 C 72.023438 1.4375 63.957031 0.148438 56.28125 -2.421875 C 48.613281 -5.003906 41.582031 -8.664062 35.1875 -13.40625 C 28.789062 -18.15625 23.234375 -23.726562 18.515625 -30.125 C 13.804688 -36.519531 10.160156 -43.570312 7.578125 -51.28125 C 5.003906 -58.988281 3.71875 -67.070312 3.71875 -75.53125 C 3.71875 -84.0625 5.003906 -92.160156 7.578125 -99.828125 C 10.160156 -107.492188 13.804688 -114.539062 18.515625 -120.96875 C 23.234375 -127.40625 28.789062 -132.992188 35.1875 -137.734375 C 41.582031 -142.484375 48.628906 -146.148438 56.328125 -148.734375 C 64.035156 -151.316406 72.15625 -152.609375 80.6875 -152.609375 C 88.320312 -152.609375 95.59375 -151.539062 102.5 -149.40625 C 109.414062 -147.269531 115.898438 -144.347656 121.953125 -140.640625 L 112.671875 -124.53125 C 108.203125 -127.425781 103.234375 -129.710938 97.765625 -131.390625 C 92.296875 -133.078125 86.601562 -133.921875 80.6875 -133.921875 C 72.570312 -133.921875 64.988281 -132.40625 57.9375 -129.375 C 50.882812 -126.351562 44.691406 -122.160156 39.359375 -116.796875 C 34.023438 -111.429688 29.863281 -105.222656 26.875 -98.171875 C 23.882812 -91.117188 22.390625 -83.570312 22.390625 -75.53125 C 22.390625 -67.476562 23.882812 -59.941406 26.875 -52.921875 C 29.863281 -45.910156 33.988281 -39.738281 39.25 -34.40625 C 44.519531 -29.082031 50.660156 -24.90625 57.671875 -21.875 C 64.691406 -18.84375 72.226562 -17.296875 80.28125 -17.234375 C 86.601562 -17.160156 92.6875 -18.085938 98.53125 -20.015625 C 104.382812 -21.941406 109.75 -24.675781 114.625 -28.21875 C 119.507812 -31.757812 123.773438 -35.972656 127.421875 -40.859375 C 131.066406 -45.742188 133.90625 -51.09375 135.9375 -56.90625 C 137.96875 -62.71875 139.019531 -68.859375 139.09375 -75.328125 Z M 80.6875 -131.546875 C 86.394531 -131.546875 91.878906 -130.738281 97.140625 -129.125 C 102.398438 -127.507812 107.234375 -125.257812 111.640625 -122.375 L 102.65625 -106.0625 C 99.5 -108.195312 96.046875 -109.898438 92.296875 -111.171875 C 88.546875 -112.441406 84.675781 -113.078125 80.6875 -113.078125 C 75.53125 -113.078125 70.660156 -112.113281 66.078125 -110.1875 C 61.503906 -108.269531 57.5 -105.585938 54.0625 -102.140625 C 50.625 -98.703125 47.925781 -94.710938 45.96875 -90.171875 C 44.007812 -85.640625 43.03125 -80.757812 43.03125 -75.53125 C 43.03125 -70.375 43.988281 -65.523438 45.90625 -60.984375 C 47.832031 -56.441406 50.515625 -52.445312 53.953125 -49 C 57.398438 -45.5625 61.390625 -42.863281 65.921875 -40.90625 C 70.460938 -38.945312 75.316406 -37.929688 80.484375 -37.859375 C 86.742188 -37.859375 92.675781 -39.351562 98.28125 -42.34375 C 103.882812 -45.34375 108.40625 -49.421875 111.84375 -54.578125 L 80.28125 -54.578125 L 80.28125 -73.25 L 136.71875 -73.25 C 136.4375 -65.820312 134.75 -58.84375 131.65625 -52.3125 C 128.5625 -45.78125 124.429688 -40.050781 119.265625 -35.125 C 114.109375 -30.207031 108.191406 -26.351562 101.515625 -23.5625 C 94.847656 -20.78125 87.769531 -19.390625 80.28125 -19.390625 C 72.570312 -19.460938 65.347656 -20.957031 58.609375 -23.875 C 51.867188 -26.800781 45.953125 -30.828125 40.859375 -35.953125 C 35.765625 -41.078125 31.773438 -47.023438 28.890625 -53.796875 C 26.003906 -60.578125 24.5625 -67.820312 24.5625 -75.53125 C 24.5625 -83.300781 26.003906 -90.570312 28.890625 -97.34375 C 31.773438 -104.125 35.796875 -110.078125 40.953125 -115.203125 C 46.117188 -120.328125 52.085938 -124.332031 58.859375 -127.21875 C 65.640625 -130.101562 72.914062 -131.546875 80.6875 -131.546875 Z M 80.6875 -131.546875 "/></g></g></g><path stroke-linecap="butt" transform="matrix(0.567261, -0.490627, 0.490627, 0.567261, 628.558967, 456.802005)" fill="none" stroke-linejoin="miter" d="M 15.000784 2.002449 L 97.501866 1.996809 " stroke="#e97b2c" stroke-width="4" stroke-opacity="1" stroke-miterlimit="4"/><path stroke-linecap="round" transform="matrix(0.567261, -0.490627, 0.490627, 0.567261, 628.558967, 456.802005)" fill="none" stroke-linejoin="round" d="M 1.999513 2.002679 C 2.002998 -1.313437 4.684828 -4.000146 7.997004 -4.000069 C 11.316527 -4.000524 13.999829 -1.314755 13.999752 1.997422 C 14.000207 5.316945 11.314438 8.000247 8.002262 8.00017 C 4.686146 7.996686 1.999436 5.314856 1.999513 2.002679 " stroke="#e97b2c" stroke-width="4" stroke-opacity="1" stroke-miterlimit="4"/><path stroke-linecap="round" transform="matrix(0.567261, -0.490627, 0.490627, 0.567261, 628.558967, 456.802005)" fill-opacity="1" fill="#e97b2c" fill-rule="nonzero" stroke-linejoin="round" d="M 110.499729 2.000518 C 110.499652 5.312695 107.817822 7.999404 104.502238 8.003266 C 101.186122 7.999782 98.50282 5.314013 98.502897 2.001836 C 98.499035 -1.313747 101.188212 -4.000989 104.500388 -4.000912 C 107.816504 -3.997428 110.503213 -1.315598 110.499729 2.000518 " stroke="#e97b2c" stroke-width="4" stroke-opacity="1" stroke-miterlimit="4"/><path stroke-linecap="butt" transform="matrix(-0.561776, 0.496898, -0.496898, -0.561776, 787.035087, 320.719427)" fill="none" stroke-linejoin="miter" d="M 15.002635 1.999777 L 80.591902 2.002158 " stroke="#e97b2c" stroke-width="4" stroke-opacity="1" stroke-miterlimit="4"/><path stroke-linecap="round" transform="matrix(-0.561776, 0.496898, -0.496898, -0.561776, 787.035087, 320.719427)" fill="none" stroke-linejoin="round" d="M 1.999922 1.999624 C 2.003483 -1.313996 4.687233 -4.002255 8.000853 -3.998695 C 11.314022 -4.002486 13.998831 -1.314835 13.999172 2.002235 C 13.999062 5.311954 11.315312 8.000214 7.998242 8.000555 C 4.688523 8.000445 2.000263 5.316695 1.999922 1.999624 " stroke="#e97b2c" stroke-width="4" stroke-opacity="1" stroke-miterlimit="4"/><path stroke-linecap="butt" transform="matrix(0.602358, -0.446839, 0.446839, 0.602358, 793.738094, 289.130161)" fill="none" stroke-linejoin="miter" d="M 15.000477 2.001208 L 54.546851 1.999501 " stroke="#e97b2c" stroke-width="4" stroke-opacity="1" stroke-miterlimit="4"/><path stroke-linecap="round" transform="matrix(0.602358, -0.446839, 0.446839, 0.602358, 793.738094, 289.130161)" fill="none" stroke-linejoin="round" d="M 1.999247 1.999784 C 1.99953 -1.313805 4.687515 -4.001935 8.001105 -4.001652 C 11.314694 -4.001368 14.002824 -1.313383 14.002541 2.000206 C 14.002257 5.313795 11.314272 8.001926 8.000683 8.001642 C 4.687094 8.001359 1.998963 5.313374 1.999247 1.999784 " stroke="#e97b2c" stroke-width="4" stroke-opacity="1" stroke-miterlimit="4"/><path stroke-linecap="round" transform="matrix(0.602358, -0.446839, 0.446839, 0.602358, 793.738094, 289.130161)" fill-opacity="1" fill="#e97b2c" fill-rule="nonzero" stroke-linejoin="round" d="M 67.548081 2.000925 C 67.547797 5.314514 64.862915 7.998461 61.549326 7.998178 C 58.235737 7.997894 55.551789 5.313012 55.552073 1.999423 C 55.552356 -1.314166 58.233055 -4.001217 61.546644 -4.000933 C 64.860233 -4.00065 67.548364 -1.312665 67.548081 2.000925 " stroke="#e97b2c" stroke-width="4" stroke-opacity="1" stroke-miterlimit="4"/><g fill="#f9f9f8" fill-opacity="1"><g transform="translate(379.001941, 536.394425)"><g><path d="M 0.78125 10.921875 C -0.988281 10.921875 -2.535156 10.734375 -3.859375 10.359375 L -3.859375 3.8125 C -2.503906 4.144531 -1.269531 4.3125 -0.15625 4.3125 C 1.570312 4.3125 2.804688 3.773438 3.546875 2.703125 C 4.296875 1.628906 4.671875 -0.0507812 4.671875 -2.34375 L 4.671875 -37.125 L 12.546875 -37.125 L 12.546875 -2.390625 C 12.546875 1.941406 11.554688 5.242188 9.578125 7.515625 C 7.597656 9.785156 4.664062 10.921875 0.78125 10.921875 Z M 0.78125 10.921875 "/></g></g></g><g fill="#f9f9f8" fill-opacity="1"><g transform="translate(396.215491, 536.394425)"><g><path d="M 10.234375 -14.25 C 10.234375 -11.4375 10.691406 -9.3125 11.609375 -7.875 C 12.535156 -6.4375 14.039062 -5.71875 16.125 -5.71875 C 18.1875 -5.71875 19.671875 -6.429688 20.578125 -7.859375 C 21.484375 -9.285156 21.9375 -11.414062 21.9375 -14.25 C 21.9375 -17.050781 21.476562 -19.15625 20.5625 -20.5625 C 19.65625 -21.96875 18.160156 -22.671875 16.078125 -22.671875 C 14.003906 -22.671875 12.507812 -21.972656 11.59375 -20.578125 C 10.6875 -19.179688 10.234375 -17.070312 10.234375 -14.25 Z M 29.859375 -14.25 C 29.859375 -9.625 28.640625 -6.003906 26.203125 -3.390625 C 23.765625 -0.785156 20.367188 0.515625 16.015625 0.515625 C 13.296875 0.515625 10.894531 -0.0820312 8.8125 -1.28125 C 6.726562 -2.476562 5.128906 -4.191406 4.015625 -6.421875 C 2.898438 -8.660156 2.34375 -11.269531 2.34375 -14.25 C 2.34375 -18.882812 3.550781 -22.488281 5.96875 -25.0625 C 8.382812 -27.632812 11.785156 -28.921875 16.171875 -28.921875 C 18.898438 -28.921875 21.304688 -28.328125 23.390625 -27.140625 C 25.472656 -25.953125 27.070312 -24.25 28.1875 -22.03125 C 29.300781 -19.820312 29.859375 -17.226562 29.859375 -14.25 Z M 29.859375 -14.25 "/></g></g></g><g fill="#f9f9f8" fill-opacity="1"><g transform="translate(428.408384, 536.394425)"><g><path d="M 23.875 -8.4375 C 23.875 -5.519531 22.859375 -3.296875 20.828125 -1.765625 C 18.804688 -0.242188 15.78125 0.515625 11.75 0.515625 C 9.6875 0.515625 7.925781 0.375 6.46875 0.09375 C 5.019531 -0.1875 3.660156 -0.597656 2.390625 -1.140625 L 2.390625 -7.546875 C 3.828125 -6.867188 5.445312 -6.300781 7.25 -5.84375 C 9.050781 -5.382812 10.640625 -5.15625 12.015625 -5.15625 C 14.816406 -5.15625 16.21875 -5.96875 16.21875 -7.59375 C 16.21875 -8.195312 16.03125 -8.691406 15.65625 -9.078125 C 15.289062 -9.460938 14.648438 -9.894531 13.734375 -10.375 C 12.816406 -10.851562 11.597656 -11.414062 10.078125 -12.0625 C 7.898438 -12.976562 6.296875 -13.820312 5.265625 -14.59375 C 4.242188 -15.375 3.5 -16.269531 3.03125 -17.28125 C 2.570312 -18.289062 2.34375 -19.53125 2.34375 -21 C 2.34375 -23.519531 3.316406 -25.46875 5.265625 -26.84375 C 7.222656 -28.226562 9.992188 -28.921875 13.578125 -28.921875 C 17.003906 -28.921875 20.332031 -28.175781 23.5625 -26.6875 L 21.234375 -21.09375 C 19.804688 -21.707031 18.472656 -22.207031 17.234375 -22.59375 C 16.003906 -22.988281 14.742188 -23.1875 13.453125 -23.1875 C 11.171875 -23.1875 10.03125 -22.566406 10.03125 -21.328125 C 10.03125 -20.628906 10.394531 -20.023438 11.125 -19.515625 C 11.863281 -19.015625 13.476562 -18.265625 15.96875 -17.265625 C 18.1875 -16.367188 19.8125 -15.53125 20.84375 -14.75 C 21.875 -13.96875 22.632812 -13.066406 23.125 -12.046875 C 23.625 -11.035156 23.875 -9.832031 23.875 -8.4375 Z M 23.875 -8.4375 "/></g></g></g><g fill="#f9f9f8" fill-opacity="1"><g transform="translate(454.254097, 536.394425)"><g><path d="M 30.265625 0 L 22.515625 0 L 22.515625 -16.578125 C 22.515625 -20.671875 20.992188 -22.71875 17.953125 -22.71875 C 15.785156 -22.71875 14.21875 -21.984375 13.25 -20.515625 C 12.289062 -19.046875 11.8125 -16.660156 11.8125 -13.359375 L 11.8125 0 L 4.0625 0 L 4.0625 -39.515625 L 11.8125 -39.515625 L 11.8125 -31.453125 C 11.8125 -30.828125 11.75 -29.359375 11.625 -27.046875 L 11.453125 -24.75 L 11.859375 -24.75 C 13.585938 -27.53125 16.328125 -28.921875 20.078125 -28.921875 C 23.421875 -28.921875 25.953125 -28.019531 27.671875 -26.21875 C 29.398438 -24.425781 30.265625 -21.859375 30.265625 -18.515625 Z M 30.265625 0 "/></g></g></g><g fill="#f9f9f8" fill-opacity="1"><g transform="translate(488.427309, 536.394425)"><g><path d="M 24.171875 0 L 23.125 -3.625 L 22.71875 -3.625 C 21.894531 -2.3125 20.71875 -1.289062 19.1875 -0.5625 C 17.664062 0.15625 15.929688 0.515625 13.984375 0.515625 C 10.648438 0.515625 8.132812 -0.375 6.4375 -2.15625 C 4.75 -3.945312 3.90625 -6.519531 3.90625 -9.875 L 3.90625 -28.390625 L 11.65625 -28.390625 L 11.65625 -11.8125 C 11.65625 -9.757812 12.019531 -8.21875 12.75 -7.1875 C 13.476562 -6.164062 14.632812 -5.65625 16.21875 -5.65625 C 18.382812 -5.65625 19.953125 -6.378906 20.921875 -7.828125 C 21.890625 -9.273438 22.375 -11.675781 22.375 -15.03125 L 22.375 -28.390625 L 30.109375 -28.390625 L 30.109375 0 Z M 24.171875 0 "/></g></g></g><g fill="#f9f9f8" fill-opacity="1"><g transform="translate(522.600521, 536.394425)"><g><path d="M 22.09375 0 L 20.59375 -3.859375 L 20.390625 -3.859375 C 19.085938 -2.210938 17.742188 -1.070312 16.359375 -0.4375 C 14.984375 0.195312 13.1875 0.515625 10.96875 0.515625 C 8.238281 0.515625 6.09375 -0.265625 4.53125 -1.828125 C 2.96875 -3.390625 2.1875 -5.609375 2.1875 -8.484375 C 2.1875 -11.492188 3.238281 -13.710938 5.34375 -15.140625 C 7.445312 -16.578125 10.625 -17.367188 14.875 -17.515625 L 19.8125 -17.671875 L 19.8125 -18.921875 C 19.8125 -21.796875 18.335938 -23.234375 15.390625 -23.234375 C 13.117188 -23.234375 10.453125 -22.546875 7.390625 -21.171875 L 4.828125 -26.40625 C 8.085938 -28.113281 11.707031 -28.96875 15.6875 -28.96875 C 19.5 -28.96875 22.421875 -28.140625 24.453125 -26.484375 C 26.484375 -24.828125 27.5 -22.304688 27.5 -18.921875 L 27.5 0 Z M 19.8125 -13.15625 L 16.8125 -13.046875 C 14.5625 -12.984375 12.882812 -12.578125 11.78125 -11.828125 C 10.675781 -11.085938 10.125 -9.957031 10.125 -8.4375 C 10.125 -6.25 11.378906 -5.15625 13.890625 -5.15625 C 15.679688 -5.15625 17.113281 -5.671875 18.1875 -6.703125 C 19.269531 -7.734375 19.8125 -9.101562 19.8125 -10.8125 Z M 19.8125 -13.15625 "/></g></g></g><g fill="#f9f9f8" fill-opacity="1"><g transform="translate(554.006369, 536.394425)"><g/></g></g><g fill="#f9f9f8" fill-opacity="1"><g transform="translate(567.513166, 536.394425)"><g><path d="M 4.671875 -37.125 L 16.21875 -37.125 C 21.488281 -37.125 25.3125 -36.375 27.6875 -34.875 C 30.0625 -33.375 31.25 -30.992188 31.25 -27.734375 C 31.25 -25.515625 30.726562 -23.691406 29.6875 -22.265625 C 28.65625 -20.847656 27.273438 -19.992188 25.546875 -19.703125 L 25.546875 -19.453125 C 27.898438 -18.921875 29.597656 -17.9375 30.640625 -16.5 C 31.679688 -15.0625 32.203125 -13.148438 32.203125 -10.765625 C 32.203125 -7.378906 30.976562 -4.738281 28.53125 -2.84375 C 26.082031 -0.945312 22.757812 0 18.5625 0 L 4.671875 0 Z M 12.546875 -22.421875 L 17.109375 -22.421875 C 19.242188 -22.421875 20.789062 -22.75 21.75 -23.40625 C 22.707031 -24.070312 23.1875 -25.164062 23.1875 -26.6875 C 23.1875 -28.101562 22.664062 -29.117188 21.625 -29.734375 C 20.582031 -30.359375 18.9375 -30.671875 16.6875 -30.671875 L 12.546875 -30.671875 Z M 12.546875 -16.171875 L 12.546875 -6.5 L 17.671875 -6.5 C 19.835938 -6.5 21.4375 -6.910156 22.46875 -7.734375 C 23.5 -8.566406 24.015625 -9.835938 24.015625 -11.546875 C 24.015625 -14.628906 21.816406 -16.171875 17.421875 -16.171875 Z M 12.546875 -16.171875 "/></g></g></g><g fill="#f9f9f8" fill-opacity="1"><g transform="translate(602.448051, 536.394425)"><g><path d="M 15.8125 -23.40625 C 14.175781 -23.40625 12.890625 -22.882812 11.953125 -21.84375 C 11.023438 -20.800781 10.492188 -19.328125 10.359375 -17.421875 L 21.234375 -17.421875 C 21.191406 -19.328125 20.6875 -20.800781 19.71875 -21.84375 C 18.757812 -22.882812 17.457031 -23.40625 15.8125 -23.40625 Z M 16.90625 0.515625 C 12.34375 0.515625 8.773438 -0.742188 6.203125 -3.265625 C 3.628906 -5.796875 2.34375 -9.367188 2.34375 -13.984375 C 2.34375 -18.742188 3.53125 -22.421875 5.90625 -25.015625 C 8.28125 -27.617188 11.566406 -28.921875 15.765625 -28.921875 C 19.773438 -28.921875 22.894531 -27.773438 25.125 -25.484375 C 27.363281 -23.203125 28.484375 -20.046875 28.484375 -16.015625 L 28.484375 -12.265625 L 10.1875 -12.265625 C 10.269531 -10.066406 10.921875 -8.347656 12.140625 -7.109375 C 13.359375 -5.867188 15.066406 -5.25 17.265625 -5.25 C 18.972656 -5.25 20.585938 -5.425781 22.109375 -5.78125 C 23.640625 -6.144531 25.234375 -6.710938 26.890625 -7.484375 L 26.890625 -1.5 C 25.535156 -0.820312 24.085938 -0.316406 22.546875 0.015625 C 21.003906 0.347656 19.125 0.515625 16.90625 0.515625 Z M 16.90625 0.515625 "/></g></g></g><g fill="#f9f9f8" fill-opacity="1"><g transform="translate(633.168387, 536.394425)"><g><path d="M 30.265625 0 L 22.515625 0 L 22.515625 -16.578125 C 22.515625 -18.628906 22.148438 -20.164062 21.421875 -21.1875 C 20.703125 -22.207031 19.546875 -22.71875 17.953125 -22.71875 C 15.785156 -22.71875 14.21875 -21.992188 13.25 -20.546875 C 12.289062 -19.109375 11.8125 -16.710938 11.8125 -13.359375 L 11.8125 0 L 4.0625 0 L 4.0625 -28.390625 L 9.984375 -28.390625 L 11.015625 -24.75 L 11.453125 -24.75 C 12.316406 -26.125 13.503906 -27.160156 15.015625 -27.859375 C 16.535156 -28.566406 18.257812 -28.921875 20.1875 -28.921875 C 23.488281 -28.921875 25.992188 -28.023438 27.703125 -26.234375 C 29.410156 -24.453125 30.265625 -21.878906 30.265625 -18.515625 Z M 30.265625 0 "/></g></g></g><g fill="#f9f9f8" fill-opacity="1"><g transform="translate(667.341587, 536.394425)"><g><path d="M 22.09375 0 L 20.59375 -3.859375 L 20.390625 -3.859375 C 19.085938 -2.210938 17.742188 -1.070312 16.359375 -0.4375 C 14.984375 0.195312 13.1875 0.515625 10.96875 0.515625 C 8.238281 0.515625 6.09375 -0.265625 4.53125 -1.828125 C 2.96875 -3.390625 2.1875 -5.609375 2.1875 -8.484375 C 2.1875 -11.492188 3.238281 -13.710938 5.34375 -15.140625 C 7.445312 -16.578125 10.625 -17.367188 14.875 -17.515625 L 19.8125 -17.671875 L 19.8125 -18.921875 C 19.8125 -21.796875 18.335938 -23.234375 15.390625 -23.234375 C 13.117188 -23.234375 10.453125 -22.546875 7.390625 -21.171875 L 4.828125 -26.40625 C 8.085938 -28.113281 11.707031 -28.96875 15.6875 -28.96875 C 19.5 -28.96875 22.421875 -28.140625 24.453125 -26.484375 C 26.484375 -24.828125 27.5 -22.304688 27.5 -18.921875 L 27.5 0 Z M 19.8125 -13.15625 L 16.8125 -13.046875 C 14.5625 -12.984375 12.882812 -12.578125 11.78125 -11.828125 C 10.675781 -11.085938 10.125 -9.957031 10.125 -8.4375 C 10.125 -6.25 11.378906 -5.15625 13.890625 -5.15625 C 15.679688 -5.15625 17.113281 -5.671875 18.1875 -6.703125 C 19.269531 -7.734375 19.8125 -9.101562 19.8125 -10.8125 Z M 19.8125 -13.15625 "/></g></g></g><g fill="#f9f9f8" fill-opacity="1"><g transform="translate(698.747447, 536.394425)"><g><path d="M 10.8125 0 L 0 -28.390625 L 8.09375 -28.390625 L 13.578125 -12.21875 C 14.191406 -10.164062 14.578125 -8.226562 14.734375 -6.40625 L 14.875 -6.40625 C 14.957031 -8.03125 15.335938 -9.96875 16.015625 -12.21875 L 21.484375 -28.390625 L 29.578125 -28.390625 L 18.765625 0 Z M 10.8125 0 "/></g></g></g><g fill="#f9f9f8" fill-opacity="1"><g transform="translate(728.325318, 536.394425)"><g><path d="M 3.734375 -35.71875 C 3.734375 -38.25 5.140625 -39.515625 7.953125 -39.515625 C 10.753906 -39.515625 12.15625 -38.25 12.15625 -35.71875 C 12.15625 -34.519531 11.804688 -33.585938 11.109375 -32.921875 C 10.410156 -32.253906 9.359375 -31.921875 7.953125 -31.921875 C 5.140625 -31.921875 3.734375 -33.1875 3.734375 -35.71875 Z M 11.8125 0 L 4.0625 0 L 4.0625 -28.390625 L 11.8125 -28.390625 Z M 11.8125 0 "/></g></g></g><g fill="#f9f9f8" fill-opacity="1"><g transform="translate(744.19326, 536.394425)"><g><path d="M 13.046875 0.515625 C 9.710938 0.515625 7.09375 -0.78125 5.1875 -3.375 C 3.289062 -5.96875 2.34375 -9.554688 2.34375 -14.140625 C 2.34375 -18.796875 3.3125 -22.421875 5.25 -25.015625 C 7.1875 -27.617188 9.851562 -28.921875 13.25 -28.921875 C 16.820312 -28.921875 19.550781 -27.53125 21.4375 -24.75 L 21.6875 -24.75 C 21.289062 -26.875 21.09375 -28.765625 21.09375 -30.421875 L 21.09375 -39.515625 L 28.875 -39.515625 L 28.875 0 L 22.921875 0 L 21.4375 -3.6875 L 21.09375 -3.6875 C 19.332031 -0.882812 16.648438 0.515625 13.046875 0.515625 Z M 15.765625 -5.65625 C 17.742188 -5.65625 19.191406 -6.226562 20.109375 -7.375 C 21.035156 -8.53125 21.546875 -10.488281 21.640625 -13.25 L 21.640625 -14.09375 C 21.640625 -17.132812 21.164062 -19.316406 20.21875 -20.640625 C 19.28125 -21.960938 17.753906 -22.625 15.640625 -22.625 C 13.910156 -22.625 12.566406 -21.890625 11.609375 -20.421875 C 10.660156 -18.960938 10.1875 -16.835938 10.1875 -14.046875 C 10.1875 -11.253906 10.664062 -9.15625 11.625 -7.75 C 12.59375 -6.351562 13.972656 -5.65625 15.765625 -5.65625 Z M 15.765625 -5.65625 "/></g></g></g><g fill="#f9f9f8" fill-opacity="1"><g transform="translate(777.097014, 536.394425)"><g><path d="M 15.8125 -23.40625 C 14.175781 -23.40625 12.890625 -22.882812 11.953125 -21.84375 C 11.023438 -20.800781 10.492188 -19.328125 10.359375 -17.421875 L 21.234375 -17.421875 C 21.191406 -19.328125 20.6875 -20.800781 19.71875 -21.84375 C 18.757812 -22.882812 17.457031 -23.40625 15.8125 -23.40625 Z M 16.90625 0.515625 C 12.34375 0.515625 8.773438 -0.742188 6.203125 -3.265625 C 3.628906 -5.796875 2.34375 -9.367188 2.34375 -13.984375 C 2.34375 -18.742188 3.53125 -22.421875 5.90625 -25.015625 C 8.28125 -27.617188 11.566406 -28.921875 15.765625 -28.921875 C 19.773438 -28.921875 22.894531 -27.773438 25.125 -25.484375 C 27.363281 -23.203125 28.484375 -20.046875 28.484375 -16.015625 L 28.484375 -12.265625 L 10.1875 -12.265625 C 10.269531 -10.066406 10.921875 -8.347656 12.140625 -7.109375 C 13.359375 -5.867188 15.066406 -5.25 17.265625 -5.25 C 18.972656 -5.25 20.585938 -5.425781 22.109375 -5.78125 C 23.640625 -6.144531 25.234375 -6.710938 26.890625 -7.484375 L 26.890625 -1.5 C 25.535156 -0.820312 24.085938 -0.316406 22.546875 0.015625 C 21.003906 0.347656 19.125 0.515625 16.90625 0.515625 Z M 16.90625 0.515625 "/></g></g></g><g fill="#f9f9f8" fill-opacity="1"><g transform="translate(807.817395, 536.394425)"><g><path d="M 23.875 -8.4375 C 23.875 -5.519531 22.859375 -3.296875 20.828125 -1.765625 C 18.804688 -0.242188 15.78125 0.515625 11.75 0.515625 C 9.6875 0.515625 7.925781 0.375 6.46875 0.09375 C 5.019531 -0.1875 3.660156 -0.597656 2.390625 -1.140625 L 2.390625 -7.546875 C 3.828125 -6.867188 5.445312 -6.300781 7.25 -5.84375 C 9.050781 -5.382812 10.640625 -5.15625 12.015625 -5.15625 C 14.816406 -5.15625 16.21875 -5.96875 16.21875 -7.59375 C 16.21875 -8.195312 16.03125 -8.691406 15.65625 -9.078125 C 15.289062 -9.460938 14.648438 -9.894531 13.734375 -10.375 C 12.816406 -10.851562 11.597656 -11.414062 10.078125 -12.0625 C 7.898438 -12.976562 6.296875 -13.820312 5.265625 -14.59375 C 4.242188 -15.375 3.5 -16.269531 3.03125 -17.28125 C 2.570312 -18.289062 2.34375 -19.53125 2.34375 -21 C 2.34375 -23.519531 3.316406 -25.46875 5.265625 -26.84375 C 7.222656 -28.226562 9.992188 -28.921875 13.578125 -28.921875 C 17.003906 -28.921875 20.332031 -28.175781 23.5625 -26.6875 L 21.234375 -21.09375 C 19.804688 -21.707031 18.472656 -22.207031 17.234375 -22.59375 C 16.003906 -22.988281 14.742188 -23.1875 13.453125 -23.1875 C 11.171875 -23.1875 10.03125 -22.566406 10.03125 -21.328125 C 10.03125 -20.628906 10.394531 -20.023438 11.125 -19.515625 C 11.863281 -19.015625 13.476562 -18.265625 15.96875 -17.265625 C 18.1875 -16.367188 19.8125 -15.53125 20.84375 -14.75 C 21.875 -13.96875 22.632812 -13.066406 23.125 -12.046875 C 23.625 -11.035156 23.875 -9.832031 23.875 -8.4375 Z M 23.875 -8.4375 "/></g></g></g><g fill="#f9f9f8" fill-opacity="1"><g transform="translate(833.663097, 536.394425)"><g/></g></g><g fill="#f9f9f8" fill-opacity="1"><g transform="translate(847.169917, 536.394425)"><g><path d="M 18.765625 -20.84375 L 33.484375 -20.84375 L 33.484375 -1.59375 C 31.097656 -0.820312 28.851562 -0.28125 26.75 0.03125 C 24.644531 0.351562 22.488281 0.515625 20.28125 0.515625 C 14.6875 0.515625 10.410156 -1.128906 7.453125 -4.421875 C 4.492188 -7.722656 3.015625 -12.453125 3.015625 -18.609375 C 3.015625 -24.597656 4.726562 -29.269531 8.15625 -32.625 C 11.59375 -35.976562 16.347656 -37.65625 22.421875 -37.65625 C 26.234375 -37.65625 29.90625 -36.894531 33.4375 -35.375 L 30.828125 -29.078125 C 28.117188 -30.429688 25.300781 -31.109375 22.375 -31.109375 C 18.96875 -31.109375 16.238281 -29.960938 14.1875 -27.671875 C 12.144531 -25.390625 11.125 -22.316406 11.125 -18.453125 C 11.125 -14.429688 11.945312 -11.359375 13.59375 -9.234375 C 15.25 -7.109375 17.648438 -6.046875 20.796875 -6.046875 C 22.441406 -6.046875 24.109375 -6.210938 25.796875 -6.546875 L 25.796875 -14.296875 L 18.765625 -14.296875 Z M 18.765625 -20.84375 "/></g></g></g><g fill="#f9f9f8" fill-opacity="1"><g transform="translate(884.821343, 536.394425)"><g><path d="M 24.171875 0 L 23.125 -3.625 L 22.71875 -3.625 C 21.894531 -2.3125 20.71875 -1.289062 19.1875 -0.5625 C 17.664062 0.15625 15.929688 0.515625 13.984375 0.515625 C 10.648438 0.515625 8.132812 -0.375 6.4375 -2.15625 C 4.75 -3.945312 3.90625 -6.519531 3.90625 -9.875 L 3.90625 -28.390625 L 11.65625 -28.390625 L 11.65625 -11.8125 C 11.65625 -9.757812 12.019531 -8.21875 12.75 -7.1875 C 13.476562 -6.164062 14.632812 -5.65625 16.21875 -5.65625 C 18.382812 -5.65625 19.953125 -6.378906 20.921875 -7.828125 C 21.890625 -9.273438 22.375 -11.675781 22.375 -15.03125 L 22.375 -28.390625 L 30.109375 -28.390625 L 30.109375 0 Z M 24.171875 0 "/></g></g></g><g fill="#f9f9f8" fill-opacity="1"><g transform="translate(918.994589, 536.394425)"><g><path d="M 23.8125 0 L 1.390625 0 L 1.390625 -4.578125 L 14.546875 -22.46875 L 2.1875 -22.46875 L 2.1875 -28.390625 L 23.359375 -28.390625 L 23.359375 -23.359375 L 10.5625 -5.921875 L 23.8125 -5.921875 Z M 23.8125 0 "/></g></g></g><g fill="#f9f9f8" fill-opacity="1"><g transform="translate(944.3579, 536.394425)"><g><path d="M 29.484375 0 L 21.734375 0 L 21.734375 -16.578125 C 21.734375 -18.628906 21.390625 -20.164062 20.703125 -21.1875 C 20.015625 -22.207031 18.9375 -22.71875 17.46875 -22.71875 C 15.488281 -22.71875 14.050781 -21.988281 13.15625 -20.53125 C 12.257812 -19.082031 11.8125 -16.691406 11.8125 -13.359375 L 11.8125 0 L 4.0625 0 L 4.0625 -28.390625 L 9.984375 -28.390625 L 11.015625 -24.75 L 11.453125 -24.75 C 12.210938 -26.0625 13.3125 -27.082031 14.75 -27.8125 C 16.1875 -28.550781 17.835938 -28.921875 19.703125 -28.921875 C 23.953125 -28.921875 26.832031 -27.53125 28.34375 -24.75 L 29.015625 -24.75 C 29.785156 -26.070312 30.910156 -27.097656 32.390625 -27.828125 C 33.867188 -28.554688 35.539062 -28.921875 37.40625 -28.921875 C 40.613281 -28.921875 43.039062 -28.09375 44.6875 -26.4375 C 46.34375 -24.789062 47.171875 -22.148438 47.171875 -18.515625 L 47.171875 0 L 39.40625 0 L 39.40625 -16.578125 C 39.40625 -18.628906 39.0625 -20.164062 38.375 -21.1875 C 37.6875 -22.207031 36.609375 -22.71875 35.140625 -22.71875 C 33.242188 -22.71875 31.828125 -22.039062 30.890625 -20.6875 C 29.953125 -19.332031 29.484375 -17.1875 29.484375 -14.25 Z M 29.484375 0 "/></g></g></g><g fill="#f9f9f8" fill-opacity="1"><g transform="translate(995.414615, 536.394425)"><g><path d="M 22.09375 0 L 20.59375 -3.859375 L 20.390625 -3.859375 C 19.085938 -2.210938 17.742188 -1.070312 16.359375 -0.4375 C 14.984375 0.195312 13.1875 0.515625 10.96875 0.515625 C 8.238281 0.515625 6.09375 -0.265625 4.53125 -1.828125 C 2.96875 -3.390625 2.1875 -5.609375 2.1875 -8.484375 C 2.1875 -11.492188 3.238281 -13.710938 5.34375 -15.140625 C 7.445312 -16.578125 10.625 -17.367188 14.875 -17.515625 L 19.8125 -17.671875 L 19.8125 -18.921875 C 19.8125 -21.796875 18.335938 -23.234375 15.390625 -23.234375 C 13.117188 -23.234375 10.453125 -22.546875 7.390625 -21.171875 L 4.828125 -26.40625 C 8.085938 -28.113281 11.707031 -28.96875 15.6875 -28.96875 C 19.5 -28.96875 22.421875 -28.140625 24.453125 -26.484375 C 26.484375 -24.828125 27.5 -22.304688 27.5 -18.921875 L 27.5 0 Z M 19.8125 -13.15625 L 16.8125 -13.046875 C 14.5625 -12.984375 12.882812 -12.578125 11.78125 -11.828125 C 10.675781 -11.085938 10.125 -9.957031 10.125 -8.4375 C 10.125 -6.25 11.378906 -5.15625 13.890625 -5.15625 C 15.679688 -5.15625 17.113281 -5.671875 18.1875 -6.703125 C 19.269531 -7.734375 19.8125 -9.101562 19.8125 -10.8125 Z M 11.203125 -31.515625 L 11.203125 -32.203125 C 14.109375 -35.585938 16.09375 -38.132812 17.15625 -39.84375 L 25.84375 -39.84375 L 25.84375 -39.3125 C 24.96875 -38.425781 23.46875 -37.113281 21.34375 -35.375 C 19.21875 -33.644531 17.550781 -32.359375 16.34375 -31.515625 Z M 11.203125 -31.515625 "/></g></g></g><g fill="#f9f9f8" fill-opacity="1"><g transform="translate(1026.820451, 536.394425)"><g><path d="M 30.265625 0 L 22.515625 0 L 22.515625 -16.578125 C 22.515625 -18.628906 22.148438 -20.164062 21.421875 -21.1875 C 20.703125 -22.207031 19.546875 -22.71875 17.953125 -22.71875 C 15.785156 -22.71875 14.21875 -21.992188 13.25 -20.546875 C 12.289062 -19.109375 11.8125 -16.710938 11.8125 -13.359375 L 11.8125 0 L 4.0625 0 L 4.0625 -28.390625 L 9.984375 -28.390625 L 11.015625 -24.75 L 11.453125 -24.75 C 12.316406 -26.125 13.503906 -27.160156 15.015625 -27.859375 C 16.535156 -28.566406 18.257812 -28.921875 20.1875 -28.921875 C 23.488281 -28.921875 25.992188 -28.023438 27.703125 -26.234375 C 29.410156 -24.453125 30.265625 -21.878906 30.265625 -18.515625 Z M 30.265625 0 "/></g></g></g><g fill="#f9f9f8" fill-opacity="1"><g transform="translate(468.200341, 581.044383)"><g><path d="M 3.34375 0 L 3.34375 -24.265625 L 6.15625 -24.265625 L 6.15625 0 Z M 3.34375 0 "/></g></g></g><g fill="#f9f9f8" fill-opacity="1"><g transform="translate(477.67875, 581.044383)"><g><path d="M 15.375 0 L 15.375 -11.765625 C 15.375 -13.253906 15.035156 -14.363281 14.359375 -15.09375 C 13.679688 -15.820312 12.625 -16.1875 11.1875 -16.1875 C 9.28125 -16.1875 7.882812 -15.671875 7 -14.640625 C 6.113281 -13.609375 5.671875 -11.910156 5.671875 -9.546875 L 5.671875 0 L 2.921875 0 L 2.921875 -18.203125 L 5.15625 -18.203125 L 5.609375 -15.703125 L 5.75 -15.703125 C 6.3125 -16.597656 7.097656 -17.289062 8.109375 -17.78125 C 9.128906 -18.28125 10.265625 -18.53125 11.515625 -18.53125 C 13.710938 -18.53125 15.363281 -18 16.46875 -16.9375 C 17.570312 -15.882812 18.125 -14.195312 18.125 -11.875 L 18.125 0 Z M 15.375 0 "/></g></g></g><g fill="#f9f9f8" fill-opacity="1"><g transform="translate(498.544521, 581.044383)"><g><path d="M 15.375 0 L 15.375 -11.765625 C 15.375 -13.253906 15.035156 -14.363281 14.359375 -15.09375 C 13.679688 -15.820312 12.625 -16.1875 11.1875 -16.1875 C 9.28125 -16.1875 7.882812 -15.671875 7 -14.640625 C 6.113281 -13.609375 5.671875 -11.910156 5.671875 -9.546875 L 5.671875 0 L 2.921875 0 L 2.921875 -18.203125 L 5.15625 -18.203125 L 5.609375 -15.703125 L 5.75 -15.703125 C 6.3125 -16.597656 7.097656 -17.289062 8.109375 -17.78125 C 9.128906 -18.28125 10.265625 -18.53125 11.515625 -18.53125 C 13.710938 -18.53125 15.363281 -18 16.46875 -16.9375 C 17.570312 -15.882812 18.125 -14.195312 18.125 -11.875 L 18.125 0 Z M 15.375 0 "/></g></g></g><g fill="#f9f9f8" fill-opacity="1"><g transform="translate(519.410293, 581.044383)"><g><path d="M 18.625 -9.109375 C 18.625 -6.148438 17.875 -3.835938 16.375 -2.171875 C 14.882812 -0.503906 12.820312 0.328125 10.1875 0.328125 C 8.5625 0.328125 7.117188 -0.0507812 5.859375 -0.8125 C 4.597656 -1.570312 3.625 -2.664062 2.9375 -4.09375 C 2.25 -5.53125 1.90625 -7.203125 1.90625 -9.109375 C 1.90625 -12.078125 2.644531 -14.390625 4.125 -16.046875 C 5.613281 -17.703125 7.675781 -18.53125 10.3125 -18.53125 C 12.851562 -18.53125 14.875 -17.679688 16.375 -15.984375 C 17.875 -14.296875 18.625 -12.003906 18.625 -9.109375 Z M 4.765625 -9.109375 C 4.765625 -6.785156 5.226562 -5.015625 6.15625 -3.796875 C 7.082031 -2.578125 8.453125 -1.96875 10.265625 -1.96875 C 12.066406 -1.96875 13.429688 -2.570312 14.359375 -3.78125 C 15.296875 -5 15.765625 -6.773438 15.765625 -9.109375 C 15.765625 -11.421875 15.296875 -13.175781 14.359375 -14.375 C 13.429688 -15.582031 12.054688 -16.1875 10.234375 -16.1875 C 8.421875 -16.1875 7.054688 -15.59375 6.140625 -14.40625 C 5.222656 -13.226562 4.765625 -11.460938 4.765625 -9.109375 Z M 4.765625 -9.109375 "/></g></g></g><g fill="#f9f9f8" fill-opacity="1"><g transform="translate(539.944071, 581.044383)"><g><path d="M 6.90625 0 L 0 -18.203125 L 2.953125 -18.203125 L 6.875 -7.40625 C 7.757812 -4.882812 8.28125 -3.242188 8.4375 -2.484375 L 8.5625 -2.484375 C 8.6875 -3.078125 9.070312 -4.296875 9.71875 -6.140625 C 10.363281 -7.984375 11.816406 -12.003906 14.078125 -18.203125 L 17.03125 -18.203125 L 10.125 0 Z M 6.90625 0 "/></g></g></g><g fill="#f9f9f8" fill-opacity="1"><g transform="translate(556.975316, 581.044383)"><g><path d="M 14.109375 0 L 13.5625 -2.59375 L 13.4375 -2.59375 C 12.519531 -1.445312 11.609375 -0.671875 10.703125 -0.265625 C 9.804688 0.128906 8.6875 0.328125 7.34375 0.328125 C 5.53125 0.328125 4.113281 -0.132812 3.09375 -1.0625 C 2.070312 -1.988281 1.5625 -3.3125 1.5625 -5.03125 C 1.5625 -8.707031 4.5 -10.632812 10.375 -10.8125 L 13.46875 -10.90625 L 13.46875 -12.03125 C 13.46875 -13.457031 13.160156 -14.507812 12.546875 -15.1875 C 11.929688 -15.875 10.945312 -16.21875 9.59375 -16.21875 C 8.082031 -16.21875 6.367188 -15.753906 4.453125 -14.828125 L 3.609375 -16.9375 C 4.503906 -17.425781 5.484375 -17.804688 6.546875 -18.078125 C 7.617188 -18.359375 8.691406 -18.5 9.765625 -18.5 C 11.929688 -18.5 13.535156 -18.015625 14.578125 -17.046875 C 15.628906 -16.085938 16.15625 -14.546875 16.15625 -12.421875 L 16.15625 0 Z M 7.890625 -1.9375 C 9.597656 -1.9375 10.941406 -2.40625 11.921875 -3.34375 C 12.898438 -4.289062 13.390625 -5.613281 13.390625 -7.3125 L 13.390625 -8.953125 L 10.640625 -8.828125 C 8.453125 -8.753906 6.875 -8.414062 5.90625 -7.8125 C 4.9375 -7.207031 4.453125 -6.269531 4.453125 -5 C 4.453125 -4 4.753906 -3.238281 5.359375 -2.71875 C 5.960938 -2.195312 6.804688 -1.9375 7.890625 -1.9375 Z M 7.890625 -1.9375 "/></g></g></g><g fill="#f9f9f8" fill-opacity="1"><g transform="translate(575.882328, 581.044383)"><g><path d="M 10.1875 0.328125 C 7.5625 0.328125 5.523438 -0.476562 4.078125 -2.09375 C 2.628906 -3.71875 1.90625 -6.015625 1.90625 -8.984375 C 1.90625 -12.023438 2.640625 -14.375 4.109375 -16.03125 C 5.578125 -17.695312 7.664062 -18.53125 10.375 -18.53125 C 11.25 -18.53125 12.125 -18.4375 13 -18.25 C 13.875 -18.0625 14.5625 -17.835938 15.0625 -17.578125 L 14.21875 -15.234375 C 13.601562 -15.484375 12.9375 -15.6875 12.21875 -15.84375 C 11.5 -16.007812 10.863281 -16.09375 10.3125 -16.09375 C 6.613281 -16.09375 4.765625 -13.734375 4.765625 -9.015625 C 4.765625 -6.773438 5.210938 -5.054688 6.109375 -3.859375 C 7.015625 -2.671875 8.351562 -2.078125 10.125 -2.078125 C 11.644531 -2.078125 13.203125 -2.40625 14.796875 -3.0625 L 14.796875 -0.609375 C 13.578125 0.015625 12.039062 0.328125 10.1875 0.328125 Z M 10.1875 0.328125 "/></g></g></g><g fill="#f9f9f8" fill-opacity="1"><g transform="translate(592.066996, 581.044383)"><g><path d="M 5.671875 0 L 2.921875 0 L 2.921875 -18.203125 L 5.671875 -18.203125 Z M 2.6875 -23.125 C 2.6875 -23.757812 2.84375 -24.222656 3.15625 -24.515625 C 3.46875 -24.804688 3.851562 -24.953125 4.3125 -24.953125 C 4.757812 -24.953125 5.140625 -24.800781 5.453125 -24.5 C 5.773438 -24.207031 5.9375 -23.75 5.9375 -23.125 C 5.9375 -22.507812 5.773438 -22.046875 5.453125 -21.734375 C 5.140625 -21.429688 4.757812 -21.28125 4.3125 -21.28125 C 3.851562 -21.28125 3.46875 -21.429688 3.15625 -21.734375 C 2.84375 -22.046875 2.6875 -22.507812 2.6875 -23.125 Z M 2.6875 -23.125 "/></g></g></g><g fill="#f9f9f8" fill-opacity="1"><g transform="translate(600.665617, 581.044383)"><g><path d="M 18.625 -9.109375 C 18.625 -6.148438 17.875 -3.835938 16.375 -2.171875 C 14.882812 -0.503906 12.820312 0.328125 10.1875 0.328125 C 8.5625 0.328125 7.117188 -0.0507812 5.859375 -0.8125 C 4.597656 -1.570312 3.625 -2.664062 2.9375 -4.09375 C 2.25 -5.53125 1.90625 -7.203125 1.90625 -9.109375 C 1.90625 -12.078125 2.644531 -14.390625 4.125 -16.046875 C 5.613281 -17.703125 7.675781 -18.53125 10.3125 -18.53125 C 12.851562 -18.53125 14.875 -17.679688 16.375 -15.984375 C 17.875 -14.296875 18.625 -12.003906 18.625 -9.109375 Z M 4.765625 -9.109375 C 4.765625 -6.785156 5.226562 -5.015625 6.15625 -3.796875 C 7.082031 -2.578125 8.453125 -1.96875 10.265625 -1.96875 C 12.066406 -1.96875 13.429688 -2.570312 14.359375 -3.78125 C 15.296875 -5 15.765625 -6.773438 15.765625 -9.109375 C 15.765625 -11.421875 15.296875 -13.175781 14.359375 -14.375 C 13.429688 -15.582031 12.054688 -16.1875 10.234375 -16.1875 C 8.421875 -16.1875 7.054688 -15.59375 6.140625 -14.40625 C 5.222656 -13.226562 4.765625 -11.460938 4.765625 -9.109375 Z M 7.953125 -21.015625 C 8.484375 -21.703125 9.054688 -22.53125 9.671875 -23.5 C 10.285156 -24.476562 10.769531 -25.328125 11.125 -26.046875 L 14.46875 -26.046875 L 14.46875 -25.703125 C 13.976562 -24.984375 13.253906 -24.097656 12.296875 -23.046875 C 11.335938 -21.992188 10.503906 -21.179688 9.796875 -20.609375 L 7.953125 -20.609375 Z M 7.953125 -21.015625 "/></g></g></g><g fill="#f9f9f8" fill-opacity="1"><g transform="translate(621.199395, 581.044383)"><g><path d="M 15.375 0 L 15.375 -11.765625 C 15.375 -13.253906 15.035156 -14.363281 14.359375 -15.09375 C 13.679688 -15.820312 12.625 -16.1875 11.1875 -16.1875 C 9.28125 -16.1875 7.882812 -15.671875 7 -14.640625 C 6.113281 -13.609375 5.671875 -11.910156 5.671875 -9.546875 L 5.671875 0 L 2.921875 0 L 2.921875 -18.203125 L 5.15625 -18.203125 L 5.609375 -15.703125 L 5.75 -15.703125 C 6.3125 -16.597656 7.097656 -17.289062 8.109375 -17.78125 C 9.128906 -18.28125 10.265625 -18.53125 11.515625 -18.53125 C 13.710938 -18.53125 15.363281 -18 16.46875 -16.9375 C 17.570312 -15.882812 18.125 -14.195312 18.125 -11.875 L 18.125 0 Z M 15.375 0 "/></g></g></g><g fill="#f9f9f8" fill-opacity="1"><g transform="translate(642.065167, 581.044383)"><g/></g></g><g fill="#f9f9f8" fill-opacity="1"><g transform="translate(650.896183, 581.044383)"><g><path d="M 6.875 -19.4375 C 6.875 -18.675781 7.070312 -17.945312 7.46875 -17.25 C 7.863281 -16.5625 8.546875 -15.734375 9.515625 -14.765625 C 10.941406 -15.585938 11.929688 -16.347656 12.484375 -17.046875 C 13.046875 -17.753906 13.328125 -18.566406 13.328125 -19.484375 C 13.328125 -20.335938 13.039062 -21.03125 12.46875 -21.5625 C 11.90625 -22.101562 11.144531 -22.375 10.1875 -22.375 C 9.207031 -22.375 8.410156 -22.109375 7.796875 -21.578125 C 7.179688 -21.046875 6.875 -20.332031 6.875 -19.4375 Z M 9.453125 -2.140625 C 12.117188 -2.140625 14.332031 -2.992188 16.09375 -4.703125 L 8.828125 -11.734375 C 7.597656 -10.984375 6.726562 -10.359375 6.21875 -9.859375 C 5.71875 -9.367188 5.34375 -8.84375 5.09375 -8.28125 C 4.851562 -7.71875 4.734375 -7.078125 4.734375 -6.359375 C 4.734375 -5.066406 5.160156 -4.039062 6.015625 -3.28125 C 6.878906 -2.519531 8.023438 -2.140625 9.453125 -2.140625 Z M 1.875 -6.296875 C 1.875 -7.734375 2.257812 -9.003906 3.03125 -10.109375 C 3.800781 -11.210938 5.179688 -12.332031 7.171875 -13.46875 C 6.234375 -14.519531 5.59375 -15.316406 5.25 -15.859375 C 4.914062 -16.398438 4.648438 -16.960938 4.453125 -17.546875 C 4.253906 -18.128906 4.15625 -18.738281 4.15625 -19.375 C 4.15625 -21.03125 4.695312 -22.320312 5.78125 -23.25 C 6.863281 -24.1875 8.375 -24.65625 10.3125 -24.65625 C 12.101562 -24.65625 13.515625 -24.191406 14.546875 -23.265625 C 15.578125 -22.335938 16.09375 -21.050781 16.09375 -19.40625 C 16.09375 -18.21875 15.710938 -17.125 14.953125 -16.125 C 14.203125 -15.125 12.957031 -14.109375 11.21875 -13.078125 L 17.984375 -6.59375 C 18.597656 -7.28125 19.085938 -8.082031 19.453125 -9 C 19.828125 -9.925781 20.144531 -10.9375 20.40625 -12.03125 L 23.1875 -12.03125 C 22.4375 -8.863281 21.304688 -6.460938 19.796875 -4.828125 L 24.75 0 L 20.953125 0 L 17.875 -2.953125 C 16.570312 -1.785156 15.242188 -0.945312 13.890625 -0.4375 C 12.546875 0.0703125 11.039062 0.328125 9.375 0.328125 C 7 0.328125 5.15625 -0.253906 3.84375 -1.421875 C 2.53125 -2.597656 1.875 -4.222656 1.875 -6.296875 Z M 1.875 -6.296875 "/></g></g></g><g fill="#f9f9f8" fill-opacity="1"><g transform="translate(675.71266, 581.044383)"><g/></g></g><g fill="#f9f9f8" fill-opacity="1"><g transform="translate(684.543699, 581.044383)"><g><path d="M 13.734375 -22.09375 C 11.066406 -22.09375 8.957031 -21.203125 7.40625 -19.421875 C 5.863281 -17.648438 5.09375 -15.222656 5.09375 -12.140625 C 5.09375 -8.960938 5.835938 -6.503906 7.328125 -4.765625 C 8.816406 -3.035156 10.941406 -2.171875 13.703125 -2.171875 C 15.390625 -2.171875 17.316406 -2.476562 19.484375 -3.09375 L 19.484375 -0.609375 C 17.804688 0.015625 15.734375 0.328125 13.265625 0.328125 C 9.691406 0.328125 6.929688 -0.753906 4.984375 -2.921875 C 3.046875 -5.085938 2.078125 -8.171875 2.078125 -12.171875 C 2.078125 -14.671875 2.539062 -16.859375 3.46875 -18.734375 C 4.40625 -20.617188 5.753906 -22.070312 7.515625 -23.09375 C 9.285156 -24.113281 11.367188 -24.625 13.765625 -24.625 C 16.304688 -24.625 18.53125 -24.15625 20.4375 -23.21875 L 19.234375 -20.796875 C 17.398438 -21.660156 15.566406 -22.09375 13.734375 -22.09375 Z M 13.734375 -22.09375 "/></g></g></g><g fill="#f9f9f8" fill-opacity="1"><g transform="translate(705.99043, 581.044383)"><g><path d="M 18.625 -9.109375 C 18.625 -6.148438 17.875 -3.835938 16.375 -2.171875 C 14.882812 -0.503906 12.820312 0.328125 10.1875 0.328125 C 8.5625 0.328125 7.117188 -0.0507812 5.859375 -0.8125 C 4.597656 -1.570312 3.625 -2.664062 2.9375 -4.09375 C 2.25 -5.53125 1.90625 -7.203125 1.90625 -9.109375 C 1.90625 -12.078125 2.644531 -14.390625 4.125 -16.046875 C 5.613281 -17.703125 7.675781 -18.53125 10.3125 -18.53125 C 12.851562 -18.53125 14.875 -17.679688 16.375 -15.984375 C 17.875 -14.296875 18.625 -12.003906 18.625 -9.109375 Z M 4.765625 -9.109375 C 4.765625 -6.785156 5.226562 -5.015625 6.15625 -3.796875 C 7.082031 -2.578125 8.453125 -1.96875 10.265625 -1.96875 C 12.066406 -1.96875 13.429688 -2.570312 14.359375 -3.78125 C 15.296875 -5 15.765625 -6.773438 15.765625 -9.109375 C 15.765625 -11.421875 15.296875 -13.175781 14.359375 -14.375 C 13.429688 -15.582031 12.054688 -16.1875 10.234375 -16.1875 C 8.421875 -16.1875 7.054688 -15.59375 6.140625 -14.40625 C 5.222656 -13.226562 4.765625 -11.460938 4.765625 -9.109375 Z M 4.765625 -9.109375 "/></g></g></g><g fill="#f9f9f8" fill-opacity="1"><g transform="translate(726.524219, 581.044383)"><g><path d="M 15.3125 -2.4375 L 15.15625 -2.4375 C 13.882812 -0.59375 11.984375 0.328125 9.453125 0.328125 C 7.066406 0.328125 5.210938 -0.484375 3.890625 -2.109375 C 2.566406 -3.734375 1.90625 -6.046875 1.90625 -9.046875 C 1.90625 -12.046875 2.566406 -14.375 3.890625 -16.03125 C 5.222656 -17.695312 7.078125 -18.53125 9.453125 -18.53125 C 11.921875 -18.53125 13.8125 -17.632812 15.125 -15.84375 L 15.34375 -15.84375 L 15.21875 -17.15625 L 15.15625 -18.421875 L 15.15625 -25.828125 L 17.90625 -25.828125 L 17.90625 0 L 15.671875 0 Z M 9.796875 -1.96875 C 11.679688 -1.96875 13.046875 -2.476562 13.890625 -3.5 C 14.734375 -4.53125 15.15625 -6.1875 15.15625 -8.46875 L 15.15625 -9.046875 C 15.15625 -11.628906 14.722656 -13.46875 13.859375 -14.5625 C 13.003906 -15.664062 11.640625 -16.21875 9.765625 -16.21875 C 8.148438 -16.21875 6.910156 -15.585938 6.046875 -14.328125 C 5.191406 -13.078125 4.765625 -11.304688 4.765625 -9.015625 C 4.765625 -6.691406 5.191406 -4.9375 6.046875 -3.75 C 6.898438 -2.5625 8.148438 -1.96875 9.796875 -1.96875 Z M 9.796875 -1.96875 "/></g></g></g><g fill="#f9f9f8" fill-opacity="1"><g transform="translate(747.356791, 581.044383)"><g><path d="M 5.671875 0 L 2.921875 0 L 2.921875 -18.203125 L 5.671875 -18.203125 Z M 2.6875 -23.125 C 2.6875 -23.757812 2.84375 -24.222656 3.15625 -24.515625 C 3.46875 -24.804688 3.851562 -24.953125 4.3125 -24.953125 C 4.757812 -24.953125 5.140625 -24.800781 5.453125 -24.5 C 5.773438 -24.207031 5.9375 -23.75 5.9375 -23.125 C 5.9375 -22.507812 5.773438 -22.046875 5.453125 -21.734375 C 5.140625 -21.429688 4.757812 -21.28125 4.3125 -21.28125 C 3.851562 -21.28125 3.46875 -21.429688 3.15625 -21.734375 C 2.84375 -22.046875 2.6875 -22.507812 2.6875 -23.125 Z M 2.6875 -23.125 "/></g></g></g><g fill="#f9f9f8" fill-opacity="1"><g transform="translate(755.955423, 581.044383)"><g><path d="M 17.8125 -18.203125 L 17.8125 -16.453125 L 14.4375 -16.046875 C 14.75 -15.660156 15.023438 -15.15625 15.265625 -14.53125 C 15.515625 -13.90625 15.640625 -13.203125 15.640625 -12.421875 C 15.640625 -10.640625 15.03125 -9.21875 13.8125 -8.15625 C 12.59375 -7.09375 10.921875 -6.5625 8.796875 -6.5625 C 8.253906 -6.5625 7.742188 -6.601562 7.265625 -6.6875 C 6.097656 -6.070312 5.515625 -5.289062 5.515625 -4.34375 C 5.515625 -3.851562 5.71875 -3.488281 6.125 -3.25 C 6.53125 -3.007812 7.234375 -2.890625 8.234375 -2.890625 L 11.453125 -2.890625 C 13.421875 -2.890625 14.929688 -2.472656 15.984375 -1.640625 C 17.046875 -0.816406 17.578125 0.382812 17.578125 1.96875 C 17.578125 3.988281 16.769531 5.523438 15.15625 6.578125 C 13.539062 7.640625 11.179688 8.171875 8.078125 8.171875 C 5.703125 8.171875 3.867188 7.726562 2.578125 6.84375 C 1.285156 5.957031 0.640625 4.707031 0.640625 3.09375 C 0.640625 1.976562 0.992188 1.015625 1.703125 0.203125 C 2.410156 -0.597656 3.410156 -1.140625 4.703125 -1.421875 C 4.234375 -1.640625 3.84375 -1.96875 3.53125 -2.40625 C 3.21875 -2.851562 3.0625 -3.367188 3.0625 -3.953125 C 3.0625 -4.617188 3.238281 -5.195312 3.59375 -5.6875 C 3.945312 -6.1875 4.503906 -6.671875 5.265625 -7.140625 C 4.328125 -7.523438 3.5625 -8.179688 2.96875 -9.109375 C 2.375 -10.046875 2.078125 -11.109375 2.078125 -12.296875 C 2.078125 -14.296875 2.671875 -15.832031 3.859375 -16.90625 C 5.054688 -17.988281 6.753906 -18.53125 8.953125 -18.53125 C 9.898438 -18.53125 10.753906 -18.421875 11.515625 -18.203125 Z M 3.296875 3.0625 C 3.296875 4.039062 3.710938 4.785156 4.546875 5.296875 C 5.378906 5.804688 6.570312 6.0625 8.125 6.0625 C 10.4375 6.0625 12.144531 5.710938 13.25 5.015625 C 14.363281 4.328125 14.921875 3.390625 14.921875 2.203125 C 14.921875 1.222656 14.613281 0.539062 14 0.15625 C 13.394531 -0.226562 12.253906 -0.421875 10.578125 -0.421875 L 7.265625 -0.421875 C 6.015625 -0.421875 5.039062 -0.125 4.34375 0.46875 C 3.644531 1.070312 3.296875 1.9375 3.296875 3.0625 Z M 4.796875 -12.375 C 4.796875 -11.09375 5.15625 -10.125 5.875 -9.46875 C 6.59375 -8.820312 7.59375 -8.5 8.875 -8.5 C 11.570312 -8.5 12.921875 -9.804688 12.921875 -12.421875 C 12.921875 -15.148438 11.554688 -16.515625 8.828125 -16.515625 C 7.535156 -16.515625 6.539062 -16.164062 5.84375 -15.46875 C 5.144531 -14.769531 4.796875 -13.738281 4.796875 -12.375 Z M 4.796875 -12.375 "/></g></g></g><g fill="#f9f9f8" fill-opacity="1"><g transform="translate(774.580224, 581.044383)"><g><path d="M 18.625 -9.109375 C 18.625 -6.148438 17.875 -3.835938 16.375 -2.171875 C 14.882812 -0.503906 12.820312 0.328125 10.1875 0.328125 C 8.5625 0.328125 7.117188 -0.0507812 5.859375 -0.8125 C 4.597656 -1.570312 3.625 -2.664062 2.9375 -4.09375 C 2.25 -5.53125 1.90625 -7.203125 1.90625 -9.109375 C 1.90625 -12.078125 2.644531 -14.390625 4.125 -16.046875 C 5.613281 -17.703125 7.675781 -18.53125 10.3125 -18.53125 C 12.851562 -18.53125 14.875 -17.679688 16.375 -15.984375 C 17.875 -14.296875 18.625 -12.003906 18.625 -9.109375 Z M 4.765625 -9.109375 C 4.765625 -6.785156 5.226562 -5.015625 6.15625 -3.796875 C 7.082031 -2.578125 8.453125 -1.96875 10.265625 -1.96875 C 12.066406 -1.96875 13.429688 -2.570312 14.359375 -3.78125 C 15.296875 -5 15.765625 -6.773438 15.765625 -9.109375 C 15.765625 -11.421875 15.296875 -13.175781 14.359375 -14.375 C 13.429688 -15.582031 12.054688 -16.1875 10.234375 -16.1875 C 8.421875 -16.1875 7.054688 -15.59375 6.140625 -14.40625 C 5.222656 -13.226562 4.765625 -11.460938 4.765625 -9.109375 Z M 4.765625 -9.109375 "/></g></g></g><g fill="#f9f9f8" fill-opacity="1"><g transform="translate(795.113991, 581.044383)"><g/></g></g><g fill="#f9f9f8" fill-opacity="1"><g transform="translate(803.94503, 581.044383)"><g><path d="M 13.734375 -22.09375 C 11.066406 -22.09375 8.957031 -21.203125 7.40625 -19.421875 C 5.863281 -17.648438 5.09375 -15.222656 5.09375 -12.140625 C 5.09375 -8.960938 5.835938 -6.503906 7.328125 -4.765625 C 8.816406 -3.035156 10.941406 -2.171875 13.703125 -2.171875 C 15.390625 -2.171875 17.316406 -2.476562 19.484375 -3.09375 L 19.484375 -0.609375 C 17.804688 0.015625 15.734375 0.328125 13.265625 0.328125 C 9.691406 0.328125 6.929688 -0.753906 4.984375 -2.921875 C 3.046875 -5.085938 2.078125 -8.171875 2.078125 -12.171875 C 2.078125 -14.671875 2.539062 -16.859375 3.46875 -18.734375 C 4.40625 -20.617188 5.753906 -22.070312 7.515625 -23.09375 C 9.285156 -24.113281 11.367188 -24.625 13.765625 -24.625 C 16.304688 -24.625 18.53125 -24.15625 20.4375 -23.21875 L 19.234375 -20.796875 C 17.398438 -21.660156 15.566406 -22.09375 13.734375 -22.09375 Z M 13.734375 -22.09375 "/></g></g></g><g fill="#f9f9f8" fill-opacity="1"><g transform="translate(825.39176, 581.044383)"><g><path d="M 11.21875 -18.53125 C 12.03125 -18.53125 12.753906 -18.460938 13.390625 -18.328125 L 13.015625 -15.765625 C 12.265625 -15.929688 11.601562 -16.015625 11.03125 -16.015625 C 9.550781 -16.015625 8.285156 -15.414062 7.234375 -14.21875 C 6.191406 -13.03125 5.671875 -11.546875 5.671875 -9.765625 L 5.671875 0 L 2.921875 0 L 2.921875 -18.203125 L 5.203125 -18.203125 L 5.515625 -14.828125 L 5.640625 -14.828125 C 6.316406 -16.015625 7.128906 -16.925781 8.078125 -17.5625 C 9.035156 -18.207031 10.082031 -18.53125 11.21875 -18.53125 Z M 11.21875 -18.53125 "/></g></g></g><g fill="#f9f9f8" fill-opacity="1"><g transform="translate(839.269094, 581.044383)"><g><path d="M 10.609375 0.328125 C 7.921875 0.328125 5.796875 -0.488281 4.234375 -2.125 C 2.679688 -3.757812 1.90625 -6.035156 1.90625 -8.953125 C 1.90625 -11.878906 2.628906 -14.207031 4.078125 -15.9375 C 5.523438 -17.664062 7.460938 -18.53125 9.890625 -18.53125 C 12.171875 -18.53125 13.972656 -17.78125 15.296875 -16.28125 C 16.628906 -14.78125 17.296875 -12.800781 17.296875 -10.34375 L 17.296875 -8.59375 L 4.765625 -8.59375 C 4.816406 -6.457031 5.351562 -4.835938 6.375 -3.734375 C 7.40625 -2.628906 8.847656 -2.078125 10.703125 -2.078125 C 12.660156 -2.078125 14.597656 -2.484375 16.515625 -3.296875 L 16.515625 -0.84375 C 15.546875 -0.425781 14.625 -0.128906 13.75 0.046875 C 12.882812 0.234375 11.835938 0.328125 10.609375 0.328125 Z M 9.859375 -16.21875 C 8.398438 -16.21875 7.234375 -15.738281 6.359375 -14.78125 C 5.492188 -13.832031 4.984375 -12.519531 4.828125 -10.84375 L 14.34375 -10.84375 C 14.34375 -12.582031 13.953125 -13.910156 13.171875 -14.828125 C 12.398438 -15.753906 11.296875 -16.21875 9.859375 -16.21875 Z M 9.859375 -16.21875 "/></g></g></g><g fill="#f9f9f8" fill-opacity="1"><g transform="translate(858.342091, 581.044383)"><g><path d="M 14.109375 0 L 13.5625 -2.59375 L 13.4375 -2.59375 C 12.519531 -1.445312 11.609375 -0.671875 10.703125 -0.265625 C 9.804688 0.128906 8.6875 0.328125 7.34375 0.328125 C 5.53125 0.328125 4.113281 -0.132812 3.09375 -1.0625 C 2.070312 -1.988281 1.5625 -3.3125 1.5625 -5.03125 C 1.5625 -8.707031 4.5 -10.632812 10.375 -10.8125 L 13.46875 -10.90625 L 13.46875 -12.03125 C 13.46875 -13.457031 13.160156 -14.507812 12.546875 -15.1875 C 11.929688 -15.875 10.945312 -16.21875 9.59375 -16.21875 C 8.082031 -16.21875 6.367188 -15.753906 4.453125 -14.828125 L 3.609375 -16.9375 C 4.503906 -17.425781 5.484375 -17.804688 6.546875 -18.078125 C 7.617188 -18.359375 8.691406 -18.5 9.765625 -18.5 C 11.929688 -18.5 13.535156 -18.015625 14.578125 -17.046875 C 15.628906 -16.085938 16.15625 -14.546875 16.15625 -12.421875 L 16.15625 0 Z M 7.890625 -1.9375 C 9.597656 -1.9375 10.941406 -2.40625 11.921875 -3.34375 C 12.898438 -4.289062 13.390625 -5.613281 13.390625 -7.3125 L 13.390625 -8.953125 L 10.640625 -8.828125 C 8.453125 -8.753906 6.875 -8.414062 5.90625 -7.8125 C 4.9375 -7.207031 4.453125 -6.269531 4.453125 -5 C 4.453125 -4 4.753906 -3.238281 5.359375 -2.71875 C 5.960938 -2.195312 6.804688 -1.9375 7.890625 -1.9375 Z M 7.890625 -1.9375 "/></g></g></g><g fill="#f9f9f8" fill-opacity="1"><g transform="translate(877.249103, 581.044383)"><g><path d="M 8.796875 -1.9375 C 9.285156 -1.9375 9.753906 -1.972656 10.203125 -2.046875 C 10.660156 -2.117188 11.023438 -2.195312 11.296875 -2.28125 L 11.296875 -0.171875 C 10.992188 -0.0234375 10.550781 0.09375 9.96875 0.1875 C 9.382812 0.28125 8.863281 0.328125 8.40625 0.328125 C 4.882812 0.328125 3.125 -1.523438 3.125 -5.234375 L 3.125 -16.046875 L 0.515625 -16.046875 L 0.515625 -17.375 L 3.125 -18.53125 L 4.28125 -22.40625 L 5.875 -22.40625 L 5.875 -18.203125 L 11.15625 -18.203125 L 11.15625 -16.046875 L 5.875 -16.046875 L 5.875 -5.34375 C 5.875 -4.25 6.132812 -3.40625 6.65625 -2.8125 C 7.175781 -2.226562 7.890625 -1.9375 8.796875 -1.9375 Z M 8.796875 -1.9375 "/></g></g></g><g fill="#f9f9f8" fill-opacity="1"><g transform="translate(889.250659, 581.044383)"><g><path d="M 5.671875 0 L 2.921875 0 L 2.921875 -18.203125 L 5.671875 -18.203125 Z M 2.6875 -23.125 C 2.6875 -23.757812 2.84375 -24.222656 3.15625 -24.515625 C 3.46875 -24.804688 3.851562 -24.953125 4.3125 -24.953125 C 4.757812 -24.953125 5.140625 -24.800781 5.453125 -24.5 C 5.773438 -24.207031 5.9375 -23.75 5.9375 -23.125 C 5.9375 -22.507812 5.773438 -22.046875 5.453125 -21.734375 C 5.140625 -21.429688 4.757812 -21.28125 4.3125 -21.28125 C 3.851562 -21.28125 3.46875 -21.429688 3.15625 -21.734375 C 2.84375 -22.046875 2.6875 -22.507812 2.6875 -23.125 Z M 2.6875 -23.125 "/></g></g></g><g fill="#f9f9f8" fill-opacity="1"><g transform="translate(897.849292, 581.044383)"><g><path d="M 6.90625 0 L 0 -18.203125 L 2.953125 -18.203125 L 6.875 -7.40625 C 7.757812 -4.882812 8.28125 -3.242188 8.4375 -2.484375 L 8.5625 -2.484375 C 8.6875 -3.078125 9.070312 -4.296875 9.71875 -6.140625 C 10.363281 -7.984375 11.816406 -12.003906 14.078125 -18.203125 L 17.03125 -18.203125 L 10.125 0 Z M 6.90625 0 "/></g></g></g><g fill="#f9f9f8" fill-opacity="1"><g transform="translate(914.880526, 581.044383)"><g><path d="M 18.625 -9.109375 C 18.625 -6.148438 17.875 -3.835938 16.375 -2.171875 C 14.882812 -0.503906 12.820312 0.328125 10.1875 0.328125 C 8.5625 0.328125 7.117188 -0.0507812 5.859375 -0.8125 C 4.597656 -1.570312 3.625 -2.664062 2.9375 -4.09375 C 2.25 -5.53125 1.90625 -7.203125 1.90625 -9.109375 C 1.90625 -12.078125 2.644531 -14.390625 4.125 -16.046875 C 5.613281 -17.703125 7.675781 -18.53125 10.3125 -18.53125 C 12.851562 -18.53125 14.875 -17.679688 16.375 -15.984375 C 17.875 -14.296875 18.625 -12.003906 18.625 -9.109375 Z M 4.765625 -9.109375 C 4.765625 -6.785156 5.226562 -5.015625 6.15625 -3.796875 C 7.082031 -2.578125 8.453125 -1.96875 10.265625 -1.96875 C 12.066406 -1.96875 13.429688 -2.570312 14.359375 -3.78125 C 15.296875 -5 15.765625 -6.773438 15.765625 -9.109375 C 15.765625 -11.421875 15.296875 -13.175781 14.359375 -14.375 C 13.429688 -15.582031 12.054688 -16.1875 10.234375 -16.1875 C 8.421875 -16.1875 7.054688 -15.59375 6.140625 -14.40625 C 5.222656 -13.226562 4.765625 -11.460938 4.765625 -9.109375 Z M 4.765625 -9.109375 "/></g></g></g></svg>